<?xml version="1.0" standalone="no"?>
<!DOCTYPE svg PUBLIC "-//W3C//DTD SVG 1.1//EN"
  "http://www.w3.org/Graphics/SVG/1.1/DTD/svg11.dtd">
<!-- Created with matplotlib (http://matplotlib.sourceforge.net/) -->
<svg width="585pt" height="441pt" viewBox="0 0 585 441"
   xmlns="http://www.w3.org/2000/svg"
   xmlns:xlink="http://www.w3.org/1999/xlink"
   version="1.1"
   id="svg1">
<g id="figure1">
<g id="patch1">
<path style="fill: #ffffff; stroke: #ffffff; stroke-width: 1.000000; stroke-linejoin: round; stroke-linecap: square;  opacity: 1.000000"  d="M0.000000 441.000000L585.000000 441.000000L585.000000 0.000000
L0.000000 0.000000L0.000000 441.000000"/>
</g>
<g id="axes1">
<g id="patch2">
<path style="fill: #ffffff; opacity: 1.000000"  d="M73.125000 396.900000L526.500000 396.900000L526.500000 44.100000
L73.125000 44.100000L73.125000 396.900000"/>
</g>
<g id="line2d1">
<defs>
  <clipPath id="pc3c5e41676658680e7b95047b5791c8e">
<rect x="73.125000" y="44.100000" width="453.375000" height="352.800000"/>
  </clipPath>
</defs><path style="fill: none; stroke: #000000; stroke-width: 2.000000; stroke-linejoin: round; stroke-linecap: square;  opacity: 1.000000" clip-path="url(#pc3c5e41676658680e7b95047b5791c8e)" d="M508.542412 46.554976L490.773903 49.406048L461.522440 54.721107
L418.694161 63.810825L363.436669 78.070263L301.057085 98.615479
L239.586835 125.880246L186.474539 159.330594L145.756016 197.395785
L117.544704 237.625495L99.470229 277.043698L88.487828 312.668174
L82.004770 342.132517L78.218807 364.235547L76.013397 379.148910
L74.733969 388.138891L74.000597 392.961667L73.589104 395.267148
L73.364681 396.259712L73.246065 396.653620"/>
</g>
<g id="line2d2">
<path style="fill: none; stroke: #000000; stroke-width: 2.000000; stroke-linejoin: round; stroke-linecap: butt; stroke-dasharray: 6.000000,6.000000; stroke-dashoffset: 0.000000; opacity: 1.000000" clip-path="url(#pc3c5e41676658680e7b95047b5791c8e)" d="M515.585140 46.299448L504.980546 48.760911L487.369345 53.255172
L460.723683 60.809954L423.996379 72.522662L377.877386 89.307135
L325.114910 111.596666L270.112921 139.110510L217.858189 170.787314
L172.600210 204.928125L136.850575 239.504904L111.080386 272.528106
L94.113328 302.360551L83.897517 327.907267L78.262600 348.667896
L75.407836 364.678626L74.074474 376.385242L73.497223 384.486778
L73.263820 389.782008L73.174788 393.042995"/>
</g>
<g id="line2d3">
<path style="fill: none; stroke: #000000; stroke-width: 2.000000; stroke-linejoin: round; stroke-linecap: butt; stroke-dasharray: 1.000000,3.000000; stroke-dashoffset: 0.000000; opacity: 1.000000" clip-path="url(#pc3c5e41676658680e7b95047b5791c8e)" d="M505.977150 47.666954L485.014428 51.892870L450.442200 59.768869
L400.367410 73.109506L337.379744 93.614096L269.167207 122.208377
L205.794615 158.456396L155.120217 200.368780L119.870759 244.704439
L98.150558 287.592613L85.986583 325.277430L79.595856 354.929632
L76.345228 375.402090L74.709967 387.511724L73.892270 393.494037
L73.488930 395.899366L73.294738 396.667460L73.203895 396.858120
L73.162285 396.894256L73.143199 396.899409"/>
</g>
<g id="matplotlib.axis1">
<g id="xtick1">
<g id="line2d4">
<defs><path id="m30e32995789d870ad79a2e54c91cf9c6" d="M0.000000 0.000000L0.000000 -4.000000"/></defs>
<g ><use style="fill: none; stroke: #000000; stroke-width: 0.500000; stroke-linejoin: round; stroke-linecap: butt;  opacity: 1.000000" xlink:href="#m30e32995789d870ad79a2e54c91cf9c6" x="73.125000" y="396.900000"/>
</g></g>
<g id="line2d5">
<defs><path id="m9281cae24120827b11d5ea8a7ad3e96b" d="M0.000000 0.000000L0.000000 4.000000"/></defs>
<g ><use style="fill: none; stroke: #000000; stroke-width: 0.500000; stroke-linejoin: round; stroke-linecap: butt;  opacity: 1.000000" xlink:href="#m9281cae24120827b11d5ea8a7ad3e96b" x="73.125000" y="44.100000"/>
</g></g>
<g id="text1">
<defs>
<path id="c_bd189987bd89a7b3eb6aec75796a6bc8" d="M25.000000 1.125000q-6.640625 0.000000 -10.968750 -2.875000q-4.312500 -2.890625 -6.515625 -7.765625q-2.187500 -4.890625 -2.906250 -10.375000q-0.703125 -5.500000 -0.703125 -11.890625q0.000000 -8.937500 1.468750 -16.312500q1.468750 -7.375000 6.125000 -12.375000q4.656250 -5.015625 13.500000 -5.015625q12.640625 0.000000 16.812500 9.546875q4.187500 9.546875 4.187500 24.156250q0.000000 8.875000 -1.453125 16.031250q-1.437500 7.156250 -6.093750 12.015625q-4.656250 4.859375 -13.453125 4.859375M17.671875 -9.906250q0.828125 2.968750 2.734375 5.000000q1.906250 2.031250 4.593750 2.031250q2.593750 0.000000 4.515625 -2.078125q1.937500 -2.078125 2.656250 -4.953125q0.640625 -2.500000 0.640625 -23.593750q0.000000 -19.281250 -0.640625 -21.578125q-0.828125 -2.687500 -2.703125 -4.562500q-1.875000 -1.890625 -4.468750 -1.890625q-2.593750 0.000000 -4.500000 1.859375q-1.890625 1.859375 -2.828125 4.593750q-0.578125 2.296875 -0.578125 21.578125q0.000000 21.093750 0.578125 23.593750"/>
<path id="c_241e11cb1762a072e8e04703d844d767" d="M5.906250 -8.015625q0.000000 -3.218750 2.343750 -5.609375q2.343750 -2.390625 5.671875 -2.390625q3.312500 0.000000 5.656250 2.343750q2.343750 2.343750 2.343750 5.656250q0.000000 3.328125 -2.390625 5.671875q-2.390625 2.343750 -5.609375 2.343750q-3.234375 0.000000 -5.625000 -2.390625q-2.390625 -2.390625 -2.390625 -5.625000"/>
</defs>
<g style="fill: #000000; opacity: 1.000000" transform="translate(61.148438,413.993750)scale(0.200000)">
<use xlink:href="#c_bd189987bd89a7b3eb6aec75796a6bc8"/>
<use xlink:href="#c_241e11cb1762a072e8e04703d844d767" x="50.000000"/>
<use xlink:href="#c_bd189987bd89a7b3eb6aec75796a6bc8" x="77.685547"/>
</g>
</g>
</g>
<g id="xtick2">
<g id="line2d6">
<g ><use style="fill: none; stroke: #000000; stroke-width: 0.500000; stroke-linejoin: round; stroke-linecap: butt;  opacity: 1.000000" xlink:href="#m30e32995789d870ad79a2e54c91cf9c6" x="163.800000" y="396.900000"/>
</g></g>
<g id="line2d7">
<g ><use style="fill: none; stroke: #000000; stroke-width: 0.500000; stroke-linejoin: round; stroke-linecap: butt;  opacity: 1.000000" xlink:href="#m9281cae24120827b11d5ea8a7ad3e96b" x="163.800000" y="44.100000"/>
</g></g>
<g id="text2">
<defs>
<path id="c_435c0ad052e81ac792eef9745a69dda8" d="M4.984375 -0.000000l0.000000 -3.906250q0.046875 -0.250000 0.437500 -0.781250l15.281250 -19.187500q2.875000 -3.671875 5.078125 -7.187500q2.203125 -3.515625 3.562500 -7.359375q1.375000 -3.859375 1.375000 -7.875000q0.000000 -3.312500 -0.937500 -6.609375q-0.921875 -3.296875 -3.031250 -5.390625q-2.093750 -2.109375 -5.562500 -2.109375q-4.187500 0.000000 -7.265625 2.781250q2.687500 0.593750 4.296875 2.593750q1.609375 2.000000 1.609375 4.734375q0.000000 3.171875 -2.156250 5.281250q-2.140625 2.093750 -5.265625 2.093750q-2.109375 0.000000 -3.765625 -0.953125q-1.656250 -0.953125 -2.656250 -2.656250q-1.000000 -1.718750 -1.000000 -3.765625q0.000000 -4.640625 2.703125 -8.093750q2.718750 -3.468750 7.015625 -5.281250q4.296875 -1.812500 8.875000 -1.812500q5.671875 0.000000 10.578125 2.343750q4.906250 2.343750 7.828125 6.750000q2.937500 4.390625 2.937500 10.093750q0.000000 3.906250 -1.640625 7.234375q-1.625000 3.312500 -4.078125 5.890625q-2.437500 2.562500 -7.000000 6.468750q-4.562500 3.906250 -5.390625 4.687500l-9.531250 9.125000l4.406250 0.000000q15.328125 0.000000 15.812500 -0.593750q1.375000 -1.359375 2.296875 -9.125000l5.125000 0.000000l-3.125000 22.609375z"/>
</defs>
<g style="fill: #000000; opacity: 1.000000" transform="translate(151.932813,413.993750)scale(0.200000)">
<use xlink:href="#c_bd189987bd89a7b3eb6aec75796a6bc8"/>
<use xlink:href="#c_241e11cb1762a072e8e04703d844d767" x="50.000000"/>
<use xlink:href="#c_435c0ad052e81ac792eef9745a69dda8" x="77.685547"/>
</g>
</g>
</g>
<g id="xtick3">
<g id="line2d8">
<g ><use style="fill: none; stroke: #000000; stroke-width: 0.500000; stroke-linejoin: round; stroke-linecap: butt;  opacity: 1.000000" xlink:href="#m30e32995789d870ad79a2e54c91cf9c6" x="254.475000" y="396.900000"/>
</g></g>
<g id="line2d9">
<g ><use style="fill: none; stroke: #000000; stroke-width: 0.500000; stroke-linejoin: round; stroke-linecap: butt;  opacity: 1.000000" xlink:href="#m9281cae24120827b11d5ea8a7ad3e96b" x="254.475000" y="44.100000"/>
</g></g>
<g id="text3">
<defs>
<path id="c_a94c655bbde2d2217f8233435eb45e54" d="M17.093750 -0.000000l0.000000 -5.078125l9.718750 0.000000l0.000000 -10.406250l-24.031250 0.000000l0.000000 -5.125000l30.812500 -43.703125q0.593750 -0.875000 1.812500 -0.875000l2.484375 0.000000q0.828125 0.000000 1.312500 0.500000q0.500000 0.484375 0.500000 1.312500l0.000000 42.765625l7.421875 0.000000l0.000000 5.125000l-7.421875 0.000000l0.000000 10.406250l7.421875 0.000000l0.000000 5.078125zM8.203125 -20.609375l19.671875 0.000000l0.000000 -27.875000z"/>
</defs>
<g style="fill: #000000; opacity: 1.000000" transform="translate(242.389063,413.993750)scale(0.200000)">
<use xlink:href="#c_bd189987bd89a7b3eb6aec75796a6bc8"/>
<use xlink:href="#c_241e11cb1762a072e8e04703d844d767" x="50.000000"/>
<use xlink:href="#c_a94c655bbde2d2217f8233435eb45e54" x="77.685547"/>
</g>
</g>
</g>
<g id="xtick4">
<g id="line2d10">
<g ><use style="fill: none; stroke: #000000; stroke-width: 0.500000; stroke-linejoin: round; stroke-linecap: butt;  opacity: 1.000000" xlink:href="#m30e32995789d870ad79a2e54c91cf9c6" x="345.150000" y="396.900000"/>
</g></g>
<g id="line2d11">
<g ><use style="fill: none; stroke: #000000; stroke-width: 0.500000; stroke-linejoin: round; stroke-linecap: butt;  opacity: 1.000000" xlink:href="#m9281cae24120827b11d5ea8a7ad3e96b" x="345.150000" y="44.100000"/>
</g></g>
<g id="text4">
<defs>
<path id="c_2e75b3049153cd3e7b053d54935e87d1" d="M25.000000 1.125000q-6.343750 0.000000 -10.593750 -3.125000q-4.250000 -3.125000 -6.406250 -8.000000q-2.140625 -4.890625 -2.968750 -10.656250q-0.828125 -5.765625 -0.828125 -11.671875q0.000000 -8.687500 2.828125 -16.234375q2.828125 -7.546875 8.765625 -12.234375q5.937500 -4.687500 14.718750 -4.687500q5.765625 0.000000 9.234375 3.593750q3.468750 3.593750 3.468750 9.296875q0.000000 2.687500 -1.906250 4.546875q-1.906250 1.859375 -4.500000 1.859375q-2.687500 0.000000 -4.593750 -1.859375q-1.890625 -1.859375 -1.890625 -4.546875q0.000000 -2.484375 1.625000 -4.343750q1.640625 -1.859375 4.031250 -2.046875q-1.859375 -2.203125 -5.468750 -2.203125q-5.468750 0.000000 -8.187500 3.843750q-2.703125 3.828125 -3.406250 8.781250q-0.703125 4.953125 -0.703125 10.968750q2.968750 -4.406250 7.906250 -4.406250q6.109375 0.000000 10.593750 2.734375q4.500000 2.734375 6.734375 7.578125q2.250000 4.828125 2.250000 11.078125q0.000000 9.718750 -5.546875 15.734375q-5.531250 6.000000 -15.156250 6.000000M25.000000 -3.609375q2.156250 0.000000 3.859375 -1.093750q1.703125 -1.109375 2.343750 -3.109375q0.484375 -2.296875 0.484375 -12.703125l0.000000 -0.281250q0.000000 -10.984375 -0.390625 -13.000000q-0.578125 -1.890625 -2.140625 -3.031250q-1.562500 -1.156250 -3.671875 -1.156250q-4.531250 0.000000 -5.859375 4.828125q-1.312500 4.828125 -1.312500 11.031250l0.000000 1.718750q0.000000 6.640625 1.171875 11.718750q1.171875 5.078125 5.515625 5.078125"/>
</defs>
<g style="fill: #000000; opacity: 1.000000" transform="translate(333.204688,413.993750)scale(0.200000)">
<use xlink:href="#c_bd189987bd89a7b3eb6aec75796a6bc8"/>
<use xlink:href="#c_241e11cb1762a072e8e04703d844d767" x="50.000000"/>
<use xlink:href="#c_2e75b3049153cd3e7b053d54935e87d1" x="77.685547"/>
</g>
</g>
</g>
<g id="xtick5">
<g id="line2d12">
<g ><use style="fill: none; stroke: #000000; stroke-width: 0.500000; stroke-linejoin: round; stroke-linecap: butt;  opacity: 1.000000" xlink:href="#m30e32995789d870ad79a2e54c91cf9c6" x="435.825000" y="396.900000"/>
</g></g>
<g id="line2d13">
<g ><use style="fill: none; stroke: #000000; stroke-width: 0.500000; stroke-linejoin: round; stroke-linecap: butt;  opacity: 1.000000" xlink:href="#m9281cae24120827b11d5ea8a7ad3e96b" x="435.825000" y="44.100000"/>
</g></g>
<g id="text5">
<defs>
<path id="c_56240f3e9382366e63f8314dd529d1d8" d="M4.203125 -16.406250q0.000000 -5.218750 2.781250 -9.218750q2.781250 -4.015625 7.812500 -7.000000q-3.609375 -2.437500 -5.765625 -6.453125q-2.140625 -4.031250 -2.140625 -8.437500q0.000000 -5.265625 2.265625 -9.359375q2.265625 -4.109375 6.359375 -6.359375q4.109375 -2.250000 9.484375 -2.250000q4.828125 0.000000 8.921875 1.671875q4.109375 1.656250 6.593750 5.046875q2.500000 3.390625 2.500000 8.281250q0.000000 8.156250 -8.390625 13.281250q5.359375 3.359375 8.218750 7.718750q2.859375 4.343750 2.859375 10.296875q0.000000 4.531250 -1.500000 8.343750q-1.484375 3.812500 -4.187500 6.421875q-2.703125 2.609375 -6.593750 4.078125q-3.875000 1.468750 -8.421875 1.468750q-5.718750 0.000000 -10.453125 -1.953125q-4.734375 -1.953125 -7.546875 -5.875000q-2.796875 -3.937500 -2.796875 -9.703125M25.000000 -3.609375q4.984375 0.000000 8.343750 -2.593750q3.375000 -2.593750 3.375000 -7.421875q0.000000 -2.343750 -1.296875 -4.468750q-1.296875 -2.125000 -3.437500 -3.484375l-12.593750 -8.109375q-3.031250 2.296875 -4.625000 5.859375q-1.578125 3.562500 -1.578125 7.421875q0.000000 5.562500 3.140625 9.187500q3.156250 3.609375 8.671875 3.609375M18.406250 -47.703125l11.765625 7.609375q2.390625 -2.093750 3.656250 -4.703125q1.281250 -2.609375 1.281250 -5.687500q0.000000 -4.734375 -2.734375 -7.718750q-2.734375 -2.984375 -7.468750 -2.984375q-4.156250 0.000000 -7.140625 1.890625q-2.968750 1.875000 -2.968750 5.781250q0.000000 1.750000 1.015625 3.312500q1.031250 1.562500 2.593750 2.500000"/>
</defs>
<g style="fill: #000000; opacity: 1.000000" transform="translate(423.879688,413.993750)scale(0.200000)">
<use xlink:href="#c_bd189987bd89a7b3eb6aec75796a6bc8"/>
<use xlink:href="#c_241e11cb1762a072e8e04703d844d767" x="50.000000"/>
<use xlink:href="#c_56240f3e9382366e63f8314dd529d1d8" x="77.685547"/>
</g>
</g>
</g>
<g id="xtick6">
<g id="line2d14">
<g ><use style="fill: none; stroke: #000000; stroke-width: 0.500000; stroke-linejoin: round; stroke-linecap: butt;  opacity: 1.000000" xlink:href="#m30e32995789d870ad79a2e54c91cf9c6" x="526.500000" y="396.900000"/>
</g></g>
<g id="line2d15">
<g ><use style="fill: none; stroke: #000000; stroke-width: 0.500000; stroke-linejoin: round; stroke-linecap: butt;  opacity: 1.000000" xlink:href="#m9281cae24120827b11d5ea8a7ad3e96b" x="526.500000" y="44.100000"/>
</g></g>
<g id="text6">
<defs>
<path id="c_7b019f7db3d11a6a9a374c851b938a61" d="M8.296875 -0.000000l0.000000 -5.078125l10.984375 0.000000l0.000000 -50.531250q-5.171875 1.609375 -12.390625 1.609375l0.000000 -5.078125q13.953125 0.000000 20.703125 -6.406250l2.390625 0.000000q1.312500 0.296875 1.609375 1.562500l0.000000 58.843750l11.421875 0.000000l0.000000 5.078125z"/>
</defs>
<g style="fill: #000000; opacity: 1.000000" transform="translate(514.820312,413.993750)scale(0.200000)">
<use xlink:href="#c_7b019f7db3d11a6a9a374c851b938a61"/>
<use xlink:href="#c_241e11cb1762a072e8e04703d844d767" x="50.000000"/>
<use xlink:href="#c_bd189987bd89a7b3eb6aec75796a6bc8" x="77.685547"/>
</g>
</g>
</g>
<g id="text7">
<defs>
<path id="c_b6e14084d50bbfdbdbef0209f2ace218" d="M1.125000 -17.187500l0.000000 -10.109375l26.468750 0.000000l0.000000 10.109375z"/>
<path id="c_e7839546026b50d6a21f79412334b058" d="M5.609375 -0.203125l0.000000 -21.375000q0.250000 -0.984375 1.281250 -1.218750l2.625000 0.000000q0.937500 0.234375 1.171875 1.218750q0.000000 5.609375 2.562500 9.640625q2.578125 4.031250 7.093750 5.984375q4.515625 1.953125 10.171875 1.953125q4.593750 0.000000 6.937500 -3.343750q2.343750 -3.343750 2.343750 -8.140625q0.000000 -2.390625 -0.828125 -4.734375q-0.828125 -2.343750 -2.546875 -4.093750q-1.703125 -1.765625 -4.093750 -2.390625l-12.015625 -2.984375q-6.593750 -1.656250 -10.656250 -7.296875q-4.046875 -5.640625 -4.046875 -12.437500q0.000000 -5.796875 2.375000 -10.437500q2.375000 -4.640625 6.734375 -7.218750q4.375000 -2.593750 10.281250 -2.593750q8.640625 0.000000 14.312500 4.968750l4.578125 -4.578125q0.390625 -0.296875 0.937500 -0.390625l1.171875 0.000000q0.968750 0.281250 1.218750 1.171875l0.000000 21.375000q-0.250000 1.031250 -1.218750 1.328125l-2.593750 0.000000q-1.078125 -0.250000 -1.312500 -1.328125q0.000000 -3.171875 -1.671875 -7.265625q-1.656250 -4.109375 -3.890625 -6.203125q-2.250000 -2.296875 -5.156250 -3.343750q-2.906250 -1.046875 -6.375000 -1.046875q-2.921875 0.000000 -5.000000 1.343750q-2.078125 1.328125 -3.187500 3.656250q-1.093750 2.312500 -1.093750 5.296875q0.000000 3.468750 1.968750 6.328125q1.984375 2.843750 5.312500 3.781250l12.015625 2.875000q4.484375 1.125000 7.843750 4.328125q3.375000 3.187500 5.203125 7.656250q1.843750 4.468750 1.843750 9.109375q0.000000 6.015625 -2.250000 10.968750q-2.250000 4.953125 -6.640625 7.859375q-4.390625 2.906250 -10.500000 2.906250q-10.250000 0.000000 -16.890625 -5.031250l-4.734375 4.593750q-0.390625 0.234375 -0.875000 0.437500l-1.125000 0.000000q-1.031250 -0.343750 -1.281250 -1.328125"/>
<path id="c_e99ceee9ce5f3ff57326c2b60b4a8849" d="M1.421875 19.390625l0.000000 -5.078125l6.875000 0.000000l0.000000 -51.718750q0.000000 -1.703125 -6.875000 -1.703125l0.000000 -5.078125l18.062500 -0.828125l0.000000 4.093750q5.515625 -4.093750 12.500000 -4.093750q4.984375 0.000000 8.765625 1.812500q3.781250 1.796875 6.296875 4.875000q2.515625 3.078125 3.828125 7.281250q1.328125 4.187500 1.328125 8.828125q0.000000 6.593750 -2.671875 11.796875q-2.656250 5.203125 -7.671875 8.109375q-5.000000 2.906250 -11.531250 2.906250q-5.859375 0.000000 -10.203125 -3.468750l0.000000 17.187500l6.875000 0.000000l0.000000 5.078125zM20.125000 -9.078125q3.609375 5.656250 9.265625 5.656250q5.281250 0.000000 7.453125 -6.093750q2.171875 -6.109375 2.171875 -12.703125q0.000000 -6.296875 -1.890625 -12.328125q-1.875000 -6.031250 -6.609375 -6.031250q-2.968750 0.000000 -5.703125 1.390625q-2.734375 1.390625 -4.687500 3.890625z"/>
<path id="c_ca7684a39273c231267fab53f42a37a1" d="M2.781250 -22.515625q0.000000 -6.484375 2.687500 -11.687500q2.687500 -5.203125 7.687500 -8.156250q5.015625 -2.953125 11.546875 -2.953125q6.593750 0.000000 10.843750 2.718750q4.250000 2.703125 6.250000 7.562500q2.000000 4.859375 2.000000 11.250000q0.000000 1.468750 -1.609375 2.000000l-26.171875 0.000000q0.000000 4.937500 0.703125 8.828125q0.718750 3.875000 3.203125 6.515625q2.484375 2.625000 7.281250 2.625000q4.046875 0.000000 7.296875 -2.343750q3.250000 -2.343750 4.312500 -6.156250q0.546875 -0.921875 1.468750 -1.171875l1.906250 0.000000q1.609375 0.343750 1.609375 1.765625q0.000000 0.093750 -0.093750 0.640625q-1.171875 3.656250 -3.812500 6.265625q-2.640625 2.609375 -6.296875 4.015625q-3.656250 1.390625 -7.468750 1.390625q-5.078125 0.000000 -9.375000 -1.640625q-4.296875 -1.640625 -7.421875 -4.687500q-3.125000 -3.062500 -4.843750 -7.328125q-1.703125 -4.265625 -1.703125 -9.453125M16.015625 -25.484375l17.875000 0.000000q0.000000 -3.718750 -0.765625 -7.250000q-0.750000 -3.546875 -2.812500 -6.062500q-2.046875 -2.515625 -5.609375 -2.515625q-5.171875 0.000000 -6.937500 4.734375q-1.750000 4.734375 -1.750000 11.093750"/>
<path id="c_4acecd18f759c9c1c023e82575eb30ca" d="M24.906250 0.593750q-6.593750 0.000000 -11.500000 -2.937500q-4.906250 -2.937500 -7.500000 -8.078125q-2.578125 -5.156250 -2.578125 -11.796875q0.000000 -4.937500 1.484375 -9.156250q1.484375 -4.218750 4.234375 -7.343750q2.765625 -3.125000 6.843750 -4.859375q4.078125 -1.734375 9.015625 -1.734375q5.859375 0.000000 10.656250 2.156250q4.812500 2.140625 4.812500 7.265625q0.000000 2.781250 -1.812500 4.640625q-1.796875 1.859375 -4.578125 1.859375q-2.781250 0.000000 -4.640625 -1.906250q-1.859375 -1.906250 -1.859375 -4.593750q0.000000 -3.031250 1.906250 -4.593750q-1.796875 -0.437500 -4.390625 -0.437500q-3.031250 0.000000 -4.796875 1.906250q-1.750000 1.906250 -2.515625 4.734375q-0.750000 2.828125 -0.968750 5.687500q-0.218750 2.859375 -0.218750 6.281250q0.000000 4.593750 0.656250 8.625000q0.671875 4.015625 2.953125 6.953125q2.296875 2.921875 6.703125 2.921875q3.656250 0.000000 6.187500 -2.406250q2.546875 -2.421875 3.531250 -6.093750q0.390625 -0.625000 1.171875 -0.781250l2.578125 0.000000q1.218750 0.343750 1.218750 1.375000q0.000000 0.093750 -0.093750 0.531250q-1.515625 5.515625 -6.078125 8.656250q-4.562500 3.125000 -10.421875 3.125000"/>
<path id="c_fd91a944b9cc71be1d0b5baa4bcebdb8" d="M2.390625 -0.000000l0.000000 -5.078125l6.890625 0.000000l0.000000 -31.203125q0.000000 -1.906250 -1.812500 -2.359375q-1.796875 -0.468750 -4.781250 -0.468750l0.000000 -5.078125l17.828125 -0.828125l0.000000 39.937500l6.296875 0.000000l0.000000 5.078125zM5.515625 -61.531250q0.000000 -3.359375 2.296875 -5.656250q2.296875 -2.296875 5.671875 -2.296875q3.406250 0.000000 5.703125 2.296875q2.296875 2.296875 2.296875 5.656250q0.000000 3.328125 -2.296875 5.671875q-2.296875 2.343750 -5.703125 2.343750q-3.375000 0.000000 -5.671875 -2.343750q-2.296875 -2.343750 -2.296875 -5.671875"/>
<path id="c_db0d83054eae215c701cd1bf8e8c8b70" d="M2.484375 -0.000000l0.000000 -5.078125l6.937500 0.000000l0.000000 -34.234375l-5.609375 0.000000l0.000000 -5.078125l5.609375 0.000000l0.000000 -10.687500q0.000000 -5.125000 3.093750 -8.515625q3.109375 -3.406250 7.859375 -4.906250q4.765625 -1.515625 9.796875 -1.515625q4.015625 0.000000 7.015625 2.546875q3.000000 2.531250 3.000000 6.390625q0.000000 2.671875 -1.859375 4.531250q-1.859375 1.859375 -4.437500 1.859375q-2.593750 0.000000 -4.500000 -1.906250q-1.906250 -1.906250 -1.906250 -4.484375q0.000000 -3.078125 2.203125 -4.937500l-0.484375 0.000000q-4.500000 0.000000 -6.843750 3.296875q-2.343750 3.296875 -2.343750 7.937500l0.000000 10.390625l9.671875 0.000000l0.000000 5.078125l-9.078125 0.000000l0.000000 34.234375l8.687500 0.000000l0.000000 5.078125z"/>
<path id="c_63af600cbd42c037601e11aac7dfa175" d="M8.015625 -11.718750l0.000000 -27.593750l-6.109375 0.000000l0.000000 -4.000000q4.593750 0.000000 7.468750 -3.187500q2.875000 -3.203125 4.093750 -7.906250q1.234375 -4.718750 1.234375 -9.078125l5.125000 0.000000l0.000000 19.093750l11.859375 0.000000l0.000000 5.078125l-11.859375 0.000000l0.000000 27.296875q0.000000 3.375000 0.796875 5.796875q0.812500 2.406250 3.406250 2.406250q2.343750 0.000000 3.265625 -2.578125q0.921875 -2.593750 0.921875 -5.625000l0.000000 -5.656250l5.078125 0.000000l0.000000 5.953125q0.000000 2.921875 -1.250000 5.812500q-1.234375 2.875000 -3.578125 4.687500q-2.343750 1.812500 -5.468750 1.812500q-6.640625 0.000000 -10.812500 -2.953125q-4.171875 -2.968750 -4.171875 -9.359375"/>
<path id="c_d30af9495758b4123dee714c3d90bb1a" d="M11.078125 20.015625q-3.750000 0.000000 -6.468750 -2.828125q-2.703125 -2.828125 -2.703125 -6.687500q0.000000 -2.484375 1.703125 -4.203125q1.718750 -1.703125 4.296875 -1.703125q2.500000 0.000000 4.203125 1.703125q1.703125 1.718750 1.703125 4.203125q0.000000 3.953125 -3.312500 5.421875q0.187500 0.093750 0.578125 0.093750q3.375000 0.000000 5.843750 -2.437500q2.468750 -2.437500 3.781250 -5.859375l2.875000 -7.718750l-14.984375 -39.312500l-6.390625 0.000000l0.000000 -5.078125l23.921875 0.000000l0.000000 5.078125l-5.515625 0.000000l8.984375 23.593750l8.781250 -22.765625q0.000000 -0.484375 -1.781250 -0.656250q-1.781250 -0.171875 -3.484375 -0.171875l0.000000 -5.078125l17.375000 0.000000l0.000000 5.078125q-6.296875 0.000000 -6.687500 0.937500l-17.671875 46.093750q-2.000000 5.125000 -5.953125 8.703125q-3.953125 3.593750 -9.093750 3.593750"/>
</defs>
<g style="fill: #000000; opacity: 1.000000" transform="translate(247.234375,433.212500)scale(0.200000)">
<use xlink:href="#c_7b019f7db3d11a6a9a374c851b938a61"/>
<use xlink:href="#c_b6e14084d50bbfdbdbef0209f2ace218" x="50.000000"/>
<use xlink:href="#c_e7839546026b50d6a21f79412334b058" x="83.300781"/>
<use xlink:href="#c_e99ceee9ce5f3ff57326c2b60b4a8849" x="138.818359"/>
<use xlink:href="#c_ca7684a39273c231267fab53f42a37a1" x="194.335938"/>
<use xlink:href="#c_4acecd18f759c9c1c023e82575eb30ca" x="240.917969"/>
<use xlink:href="#c_fd91a944b9cc71be1d0b5baa4bcebdb8" x="285.302734"/>
<use xlink:href="#c_db0d83054eae215c701cd1bf8e8c8b70" x="312.988281"/>
<use xlink:href="#c_fd91a944b9cc71be1d0b5baa4bcebdb8" x="343.505859"/>
<use xlink:href="#c_4acecd18f759c9c1c023e82575eb30ca" x="371.191406"/>
<use xlink:href="#c_fd91a944b9cc71be1d0b5baa4bcebdb8" x="415.576172"/>
<use xlink:href="#c_63af600cbd42c037601e11aac7dfa175" x="443.261719"/>
<use xlink:href="#c_d30af9495758b4123dee714c3d90bb1a" x="482.275391"/>
</g>
</g>
</g>
<g id="matplotlib.axis2">
<g id="ytick1">
<g id="line2d16">
<defs><path id="m3400efa6b1638b3fea9e19e898273957" d="M0.000000 0.000000L4.000000 0.000000"/></defs>
<g ><use style="fill: none; stroke: #000000; stroke-width: 0.500000; stroke-linejoin: round; stroke-linecap: butt;  opacity: 1.000000" xlink:href="#m3400efa6b1638b3fea9e19e898273957" x="73.125000" y="396.900000"/>
</g></g>
<g id="line2d17">
<defs><path id="m20b58b2501143cb5e0a5e8f1ef6f1643" d="M0.000000 0.000000L-4.000000 0.000000"/></defs>
<g ><use style="fill: none; stroke: #000000; stroke-width: 0.500000; stroke-linejoin: round; stroke-linecap: butt;  opacity: 1.000000" xlink:href="#m20b58b2501143cb5e0a5e8f1ef6f1643" x="526.500000" y="396.900000"/>
</g></g>
<g id="text8">
<g style="fill: #000000; opacity: 1.000000" transform="translate(45.171875,403.337500)scale(0.200000)">
<use xlink:href="#c_bd189987bd89a7b3eb6aec75796a6bc8"/>
<use xlink:href="#c_241e11cb1762a072e8e04703d844d767" x="50.000000"/>
<use xlink:href="#c_bd189987bd89a7b3eb6aec75796a6bc8" x="77.685547"/>
</g>
</g>
</g>
<g id="ytick2">
<g id="line2d18">
<g ><use style="fill: none; stroke: #000000; stroke-width: 0.500000; stroke-linejoin: round; stroke-linecap: butt;  opacity: 1.000000" xlink:href="#m3400efa6b1638b3fea9e19e898273957" x="73.125000" y="326.340000"/>
</g></g>
<g id="line2d19">
<g ><use style="fill: none; stroke: #000000; stroke-width: 0.500000; stroke-linejoin: round; stroke-linecap: butt;  opacity: 1.000000" xlink:href="#m20b58b2501143cb5e0a5e8f1ef6f1643" x="526.500000" y="326.340000"/>
</g></g>
<g id="text9">
<g style="fill: #000000; opacity: 1.000000" transform="translate(45.390625,332.777500)scale(0.200000)">
<use xlink:href="#c_bd189987bd89a7b3eb6aec75796a6bc8"/>
<use xlink:href="#c_241e11cb1762a072e8e04703d844d767" x="50.000000"/>
<use xlink:href="#c_435c0ad052e81ac792eef9745a69dda8" x="77.685547"/>
</g>
</g>
</g>
<g id="ytick3">
<g id="line2d20">
<g ><use style="fill: none; stroke: #000000; stroke-width: 0.500000; stroke-linejoin: round; stroke-linecap: butt;  opacity: 1.000000" xlink:href="#m3400efa6b1638b3fea9e19e898273957" x="73.125000" y="255.780000"/>
</g></g>
<g id="line2d21">
<g ><use style="fill: none; stroke: #000000; stroke-width: 0.500000; stroke-linejoin: round; stroke-linecap: butt;  opacity: 1.000000" xlink:href="#m20b58b2501143cb5e0a5e8f1ef6f1643" x="526.500000" y="255.780000"/>
</g></g>
<g id="text10">
<g style="fill: #000000; opacity: 1.000000" transform="translate(44.953125,262.217500)scale(0.200000)">
<use xlink:href="#c_bd189987bd89a7b3eb6aec75796a6bc8"/>
<use xlink:href="#c_241e11cb1762a072e8e04703d844d767" x="50.000000"/>
<use xlink:href="#c_a94c655bbde2d2217f8233435eb45e54" x="77.685547"/>
</g>
</g>
</g>
<g id="ytick4">
<g id="line2d22">
<g ><use style="fill: none; stroke: #000000; stroke-width: 0.500000; stroke-linejoin: round; stroke-linecap: butt;  opacity: 1.000000" xlink:href="#m3400efa6b1638b3fea9e19e898273957" x="73.125000" y="185.220000"/>
</g></g>
<g id="line2d23">
<g ><use style="fill: none; stroke: #000000; stroke-width: 0.500000; stroke-linejoin: round; stroke-linecap: butt;  opacity: 1.000000" xlink:href="#m20b58b2501143cb5e0a5e8f1ef6f1643" x="526.500000" y="185.220000"/>
</g></g>
<g id="text11">
<g style="fill: #000000; opacity: 1.000000" transform="translate(45.234375,191.657500)scale(0.200000)">
<use xlink:href="#c_bd189987bd89a7b3eb6aec75796a6bc8"/>
<use xlink:href="#c_241e11cb1762a072e8e04703d844d767" x="50.000000"/>
<use xlink:href="#c_2e75b3049153cd3e7b053d54935e87d1" x="77.685547"/>
</g>
</g>
</g>
<g id="ytick5">
<g id="line2d24">
<g ><use style="fill: none; stroke: #000000; stroke-width: 0.500000; stroke-linejoin: round; stroke-linecap: butt;  opacity: 1.000000" xlink:href="#m3400efa6b1638b3fea9e19e898273957" x="73.125000" y="114.660000"/>
</g></g>
<g id="line2d25">
<g ><use style="fill: none; stroke: #000000; stroke-width: 0.500000; stroke-linejoin: round; stroke-linecap: butt;  opacity: 1.000000" xlink:href="#m20b58b2501143cb5e0a5e8f1ef6f1643" x="526.500000" y="114.660000"/>
</g></g>
<g id="text12">
<g style="fill: #000000; opacity: 1.000000" transform="translate(45.234375,121.097500)scale(0.200000)">
<use xlink:href="#c_bd189987bd89a7b3eb6aec75796a6bc8"/>
<use xlink:href="#c_241e11cb1762a072e8e04703d844d767" x="50.000000"/>
<use xlink:href="#c_56240f3e9382366e63f8314dd529d1d8" x="77.685547"/>
</g>
</g>
</g>
<g id="ytick6">
<g id="line2d26">
<g ><use style="fill: none; stroke: #000000; stroke-width: 0.500000; stroke-linejoin: round; stroke-linecap: butt;  opacity: 1.000000" xlink:href="#m3400efa6b1638b3fea9e19e898273957" x="73.125000" y="44.100000"/>
</g></g>
<g id="line2d27">
<g ><use style="fill: none; stroke: #000000; stroke-width: 0.500000; stroke-linejoin: round; stroke-linecap: butt;  opacity: 1.000000" xlink:href="#m20b58b2501143cb5e0a5e8f1ef6f1643" x="526.500000" y="44.100000"/>
</g></g>
<g id="text13">
<g style="fill: #000000; opacity: 1.000000" transform="translate(45.765625,50.537500)scale(0.200000)">
<use xlink:href="#c_7b019f7db3d11a6a9a374c851b938a61"/>
<use xlink:href="#c_241e11cb1762a072e8e04703d844d767" x="50.000000"/>
<use xlink:href="#c_bd189987bd89a7b3eb6aec75796a6bc8" x="77.685547"/>
</g>
</g>
</g>
<g id="text14">
<defs>
<path id="c_c02259bade652f67eecca5e674f9d38c" d="M2.203125 -0.000000l0.000000 -5.078125l6.875000 0.000000l0.000000 -31.203125q0.000000 -2.828125 -6.875000 -2.828125l0.000000 -5.078125l17.625000 -0.828125l0.000000 9.718750q2.250000 -4.406250 6.203125 -7.062500q3.953125 -2.656250 8.781250 -2.656250q4.890625 0.000000 7.890625 1.546875q3.000000 1.531250 4.437500 4.687500q1.437500 3.140625 1.437500 8.062500l0.000000 25.640625l6.937500 0.000000l0.000000 5.078125l-24.796875 0.000000l0.000000 -5.078125l6.093750 0.000000l0.000000 -25.343750l0.000000 -0.296875q0.000000 -10.296875 -3.218750 -10.296875q-2.828125 0.000000 -5.203125 1.250000q-2.359375 1.234375 -4.046875 3.406250q-1.687500 2.171875 -2.562500 4.796875q-0.875000 2.609375 -0.875000 5.437500l0.000000 21.046875l6.875000 0.000000l0.000000 5.078125z"/>
<path id="c_1d4a10d238002893c4e280909fcefabf" d="M3.328125 -0.687500l0.000000 -13.906250q0.234375 -0.937500 1.265625 -1.234375l2.578125 0.000000q0.984375 0.343750 1.234375 1.234375q2.578125 11.171875 11.265625 11.171875q8.843750 0.000000 8.843750 -7.265625q0.000000 -1.812500 -0.937500 -3.250000q-0.921875 -1.437500 -2.437500 -2.390625q-1.500000 -0.953125 -3.218750 -1.343750l-6.000000 -1.218750q-5.421875 -1.328125 -9.015625 -4.671875q-3.578125 -3.343750 -3.578125 -8.328125q0.000000 -3.609375 1.234375 -6.234375q1.250000 -2.640625 3.515625 -4.234375q2.281250 -1.593750 5.156250 -2.265625q2.875000 -0.687500 6.437500 -0.687500q4.687500 0.000000 7.812500 1.703125l3.234375 -1.609375l0.390625 -0.093750l1.218750 0.000000q0.921875 0.250000 1.171875 1.218750l0.000000 10.984375q-0.250000 1.078125 -1.171875 1.328125l-2.640625 0.000000q-1.031250 -0.250000 -1.265625 -1.328125q0.000000 -2.640625 -1.109375 -4.562500q-1.093750 -1.921875 -3.093750 -2.968750q-2.000000 -1.062500 -4.734375 -1.062500q-8.687500 0.000000 -8.687500 6.015625q0.000000 2.187500 1.875000 3.687500q1.875000 1.484375 4.328125 2.109375l6.093750 1.171875q3.671875 0.937500 6.546875 2.875000q2.875000 1.921875 4.609375 4.921875q1.734375 3.000000 1.734375 6.718750q0.000000 7.515625 -4.390625 11.156250q-4.390625 3.640625 -11.921875 3.640625q-5.656250 0.000000 -9.375000 -2.796875l-4.187500 2.687500l-0.390625 0.109375l-1.125000 0.000000q-1.031250 -0.250000 -1.265625 -1.281250"/>
<path id="c_999d3bb9a3e4c2bb79ecc22361736b1a" d="M22.906250 -1.421875l-14.406250 -37.890625l-6.296875 0.000000l0.000000 -5.078125l23.921875 0.000000l0.000000 5.078125l-5.515625 0.000000l8.984375 23.937500l8.781250 -23.109375q0.000000 -0.484375 -1.781250 -0.656250q-1.781250 -0.171875 -3.484375 -0.171875l0.000000 -5.078125l17.375000 0.000000l0.000000 5.078125q-6.296875 0.000000 -6.687500 0.937500l-14.015625 36.953125q-0.625000 1.812500 -2.578125 1.812500l-1.718750 0.000000q-1.953125 0.000000 -2.578125 -1.812500"/>
</defs>
<g style="fill: #000000; opacity: 1.000000" transform="translate(39.953125,262.046875)rotate(-90.0)scale(0.200000)">
<use xlink:href="#c_e7839546026b50d6a21f79412334b058"/>
<use xlink:href="#c_ca7684a39273c231267fab53f42a37a1" x="55.517578"/>
<use xlink:href="#c_c02259bade652f67eecca5e674f9d38c" x="102.099609"/>
<use xlink:href="#c_1d4a10d238002893c4e280909fcefabf" x="157.617188"/>
<use xlink:href="#c_fd91a944b9cc71be1d0b5baa4bcebdb8" x="197.021484"/>
<use xlink:href="#c_63af600cbd42c037601e11aac7dfa175" x="224.707031"/>
<use xlink:href="#c_fd91a944b9cc71be1d0b5baa4bcebdb8" x="263.720703"/>
<use xlink:href="#c_999d3bb9a3e4c2bb79ecc22361736b1a" x="291.406250"/>
<use xlink:href="#c_fd91a944b9cc71be1d0b5baa4bcebdb8" x="344.091797"/>
<use xlink:href="#c_63af600cbd42c037601e11aac7dfa175" x="371.777344"/>
<use xlink:href="#c_d30af9495758b4123dee714c3d90bb1a" x="410.791016"/>
</g>
</g>
</g>
<g id="patch3">
<path style="fill: none; stroke: #000000; stroke-width: 1.000000; stroke-linejoin: round; stroke-linecap: square;  opacity: 1.000000"  d="M73.125000 44.100000L526.500000 44.100000"/>
</g>
<g id="patch4">
<path style="fill: none; stroke: #000000; stroke-width: 1.000000; stroke-linejoin: round; stroke-linecap: square;  opacity: 1.000000"  d="M526.500000 396.900000L526.500000 44.100000"/>
</g>
<g id="patch5">
<path style="fill: none; stroke: #000000; stroke-width: 1.000000; stroke-linejoin: round; stroke-linecap: square;  opacity: 1.000000"  d="M73.125000 396.900000L526.500000 396.900000"/>
</g>
<g id="patch6">
<path style="fill: none; stroke: #000000; stroke-width: 1.000000; stroke-linejoin: round; stroke-linecap: square;  opacity: 1.000000"  d="M73.125000 396.900000L73.125000 44.100000"/>
</g>
<g id="legend1">
<g id="patch7">
<path style="fill: #ffffff; stroke: #000000; stroke-width: 1.000000; stroke-linejoin: round; stroke-linecap: square;  opacity: 1.000000"  d="M209.568750 384.900000L514.500000 384.900000L514.500000 281.487500
L209.568750 281.487500L209.568750 384.900000z"/>
</g>
<g id="line2d28">
<path style="fill: none; stroke: #000000; stroke-width: 2.000000; stroke-linejoin: round; stroke-linecap: square;  opacity: 1.000000"  d="M226.368750 299.487500L259.968750 299.487500"/>
</g>
<g id="line2d29">
</g>
<g id="text15">
<defs>
<path id="c_3a261c8dc297995fa934fa3f6013e963" d="M3.421875 -0.000000l0.000000 -5.078125l9.375000 0.000000l0.000000 -58.406250l-9.375000 0.000000l0.000000 -5.125000l33.390625 0.000000l0.000000 5.125000l-9.421875 0.000000l0.000000 25.296875l23.390625 0.000000l0.000000 -25.296875l-9.375000 0.000000l0.000000 -5.125000l33.406250 0.000000l0.000000 5.125000l-9.437500 0.000000l0.000000 58.406250l9.437500 0.000000l0.000000 5.078125l-33.406250 0.000000l0.000000 -5.078125l9.375000 0.000000l0.000000 -28.031250l-23.390625 0.000000l0.000000 28.031250l9.421875 0.000000l0.000000 5.078125z"/>
<path id="c_e3fdb29635ce9f0ac310df394ef66538" d="M3.421875 -0.000000l0.000000 -5.078125l9.375000 0.000000l0.000000 -58.406250l-9.375000 0.000000l0.000000 -5.125000l35.781250 0.000000l0.000000 5.125000l-11.812500 0.000000l0.000000 58.406250l6.687500 0.000000q3.171875 0.000000 6.156250 -1.406250q2.984375 -1.421875 5.078125 -4.015625q2.640625 -3.265625 3.609375 -7.140625q0.984375 -3.890625 1.671875 -10.140625l5.125000 0.000000l-3.125000 27.781250z"/>
<path id="c_a269383f0f7176d0d1a0f4d4f9f927c0" d="M3.421875 -0.000000l0.000000 -5.078125l9.375000 0.000000l0.000000 -58.406250l-9.375000 0.000000l0.000000 -5.125000l37.062500 0.000000q7.421875 0.000000 13.203125 2.765625q5.781250 2.750000 9.609375 7.562500q3.843750 4.812500 5.765625 11.109375q1.937500 6.296875 1.937500 13.484375q0.000000 6.984375 -1.953125 13.109375q-1.953125 6.125000 -5.906250 10.796875q-3.953125 4.656250 -9.671875 7.218750q-5.718750 2.562500 -12.984375 2.562500zM26.812500 -5.078125l9.812500 0.000000q4.687500 0.000000 8.859375 -1.875000q4.171875 -1.890625 6.609375 -5.453125q2.593750 -3.859375 3.203125 -8.765625q0.609375 -4.906250 0.609375 -12.515625q0.000000 -7.921875 -0.609375 -13.062500q-0.609375 -5.156250 -3.203125 -9.062500q-1.609375 -2.437500 -4.093750 -4.187500q-2.484375 -1.765625 -5.453125 -2.625000q-2.953125 -0.859375 -5.921875 -0.859375l-9.812500 0.000000z"/>
<path id="c_55644cb6340bdeb92831803ec66cf066" d="M3.515625 -0.000000l0.000000 -5.078125q8.593750 0.000000 8.890625 -0.921875l21.671875 -62.015625q0.734375 -1.812500 2.546875 -1.812500l2.296875 0.000000q0.781250 0.000000 1.484375 0.515625q0.703125 0.515625 1.000000 1.296875l21.968750 62.937500l8.640625 0.000000l0.000000 5.078125l-31.734375 0.000000l0.000000 -5.078125l8.203125 0.000000l-4.390625 -12.593750l-21.578125 0.000000l-4.015625 11.765625q0.000000 0.828125 7.812500 0.828125l0.000000 5.078125zM24.312500 -22.796875l17.968750 0.000000l-8.984375 -25.687500z"/>
</defs>
<g style="fill: #000000; opacity: 1.000000" transform="translate(286.368750,307.887500)scale(0.166600)">
<use xlink:href="#c_3a261c8dc297995fa934fa3f6013e963"/>
<use xlink:href="#c_e7839546026b50d6a21f79412334b058" x="78.320312"/>
<use xlink:href="#c_e3fdb29635ce9f0ac310df394ef66538" x="133.837891"/>
<use xlink:href="#c_a269383f0f7176d0d1a0f4d4f9f927c0" x="193.847656"/>
<use xlink:href="#c_55644cb6340bdeb92831803ec66cf066" x="270.458984"/>
</g>
</g>
<g id="line2d30">
<path style="fill: none; stroke: #000000; stroke-width: 2.000000; stroke-linejoin: round; stroke-linecap: butt; stroke-dasharray: 6.000000,6.000000; stroke-dashoffset: 0.000000; opacity: 1.000000"  d="M226.368750 331.521875L259.968750 331.521875"/>
</g>
<g id="line2d31">
</g>
<g id="text16">
<g style="fill: #000000; opacity: 1.000000" transform="translate(286.368750,339.921875)scale(0.166600)">
<use xlink:href="#c_1d4a10d238002893c4e280909fcefabf"/>
<use xlink:href="#c_e3fdb29635ce9f0ac310df394ef66538" x="39.404297"/>
<use xlink:href="#c_a269383f0f7176d0d1a0f4d4f9f927c0" x="99.414062"/>
<use xlink:href="#c_55644cb6340bdeb92831803ec66cf066" x="176.025391"/>
</g>
</g>
<g id="line2d32">
<path style="fill: none; stroke: #000000; stroke-width: 2.000000; stroke-linejoin: round; stroke-linecap: butt; stroke-dasharray: 1.000000,3.000000; stroke-dashoffset: 0.000000; opacity: 1.000000"  d="M226.368750 363.556250L259.968750 363.556250"/>
</g>
<g id="line2d33">
</g>
<g id="text17">
<defs>
<path id="c_d41d8cd98f00b204e9800998ecf8427e" d=""/>
<path id="c_368a115d11f30032ab026f94b7604de1" d="M8.500000 -22.015625q-1.218750 -0.156250 -2.062500 -1.031250q-0.828125 -0.875000 -0.828125 -2.046875q0.000000 -1.171875 0.828125 -2.000000q0.843750 -0.843750 2.062500 -0.984375l27.296875 0.000000l0.000000 -27.343750q0.140625 -1.265625 1.046875 -2.062500q0.906250 -0.812500 2.078125 -0.812500q0.734375 0.000000 1.390625 0.390625q0.656250 0.390625 1.093750 1.078125q0.437500 0.671875 0.484375 1.406250l0.000000 27.343750l27.390625 0.000000q1.171875 0.140625 2.000000 0.984375q0.843750 0.828125 0.843750 2.000000q0.000000 1.171875 -0.843750 2.046875q-0.828125 0.875000 -2.000000 1.031250l-27.390625 0.000000l0.000000 27.343750q-0.140625 1.218750 -1.031250 2.046875q-0.875000 0.828125 -1.937500 0.828125q-1.171875 0.000000 -2.078125 -0.828125q-0.906250 -0.828125 -1.046875 -2.046875l0.000000 -27.343750z"/>
<path id="c_83adf764f9778718166b3c81e273116b" d="M25.000000 0.593750q-6.687500 0.000000 -11.703125 -2.781250q-5.000000 -2.796875 -7.765625 -7.921875q-2.750000 -5.125000 -2.750000 -11.671875q0.000000 -4.984375 1.484375 -9.328125q1.500000 -4.343750 4.375000 -7.515625q2.890625 -3.171875 7.078125 -4.921875q4.203125 -1.765625 9.281250 -1.765625q5.125000 0.000000 9.296875 1.765625q4.187500 1.750000 7.015625 4.921875q2.828125 3.171875 4.312500 7.421875q1.500000 4.250000 1.500000 9.421875q0.000000 6.546875 -2.734375 11.671875q-2.734375 5.125000 -7.765625 7.921875q-5.031250 2.781250 -11.625000 2.781250M25.000000 -3.812500q4.046875 0.000000 6.031250 -3.078125q1.984375 -3.078125 2.421875 -7.031250q0.437500 -3.953125 0.437500 -9.171875q0.000000 -3.765625 -0.203125 -6.609375q-0.187500 -2.859375 -1.000000 -5.500000q-0.796875 -2.640625 -2.656250 -4.375000q-1.859375 -1.734375 -5.031250 -1.734375q-4.093750 0.000000 -6.109375 2.890625q-2.000000 2.875000 -2.437500 6.562500q-0.437500 3.687500 -0.437500 8.765625q0.000000 5.218750 0.437500 9.156250q0.437500 3.921875 2.437500 7.031250q2.015625 3.093750 6.109375 3.093750"/>
<path id="c_b18fdf7663e3349f8fd96cab2ccb18a8" d="M24.031250 0.593750q-6.453125 0.000000 -11.140625 -3.000000q-4.687500 -3.015625 -7.125000 -8.265625q-2.437500 -5.250000 -2.437500 -11.546875q0.000000 -6.546875 2.656250 -11.734375q2.656250 -5.203125 7.578125 -8.125000q4.937500 -2.937500 11.531250 -2.937500q6.109375 0.000000 10.890625 3.703125l0.000000 -19.375000q0.000000 -1.859375 -1.953125 -2.328125q-1.953125 -0.468750 -4.921875 -0.468750l0.000000 -5.125000l18.109375 -0.781250l0.000000 61.484375q0.000000 1.750000 1.953125 2.296875q1.953125 0.531250 4.937500 0.531250l0.000000 5.078125l-18.703125 0.593750l0.000000 -4.015625q-4.890625 4.015625 -11.375000 4.015625M25.000000 -3.421875q3.265625 0.000000 5.953125 -1.671875q2.687500 -1.687500 4.453125 -4.531250l0.000000 -26.265625q-1.609375 -2.250000 -4.109375 -3.687500q-2.484375 -1.437500 -5.171875 -1.437500q-4.343750 0.000000 -6.500000 2.953125q-2.140625 2.953125 -2.640625 6.765625q-0.484375 3.812500 -0.484375 8.890625l0.000000 0.281250q0.000000 3.468750 0.187500 6.375000q0.203125 2.906250 0.984375 5.750000q0.781250 2.828125 2.562500 4.703125q1.781250 1.875000 4.765625 1.875000"/>
<path id="c_bb3a2568f2aa9eada3f80ddfd89c5050" d="M2.781250 -11.187500q0.000000 -5.703125 4.531250 -9.187500q4.546875 -3.500000 10.765625 -4.906250q6.234375 -1.421875 12.000000 -1.421875l0.000000 -3.718750q0.000000 -4.390625 -1.906250 -7.640625q-1.906250 -3.250000 -6.046875 -3.250000q-2.687500 0.000000 -5.718750 0.484375q2.093750 1.953125 2.093750 4.937500q0.000000 2.781250 -1.812500 4.640625q-1.796875 1.859375 -4.578125 1.859375q-2.781250 0.000000 -4.640625 -1.859375q-1.859375 -1.859375 -1.859375 -4.640625q0.000000 -3.812500 2.656250 -5.906250q2.671875 -2.093750 6.375000 -2.796875q3.718750 -0.718750 7.578125 -0.718750q4.828125 0.000000 9.312500 1.500000q4.500000 1.484375 7.421875 4.781250q2.937500 3.281250 2.937500 8.312500l0.000000 23.640625q0.437500 2.000000 5.031250 2.000000q1.265625 0.296875 1.562500 1.562500l0.000000 1.906250q-0.296875 1.312500 -1.562500 1.609375l-6.937500 0.000000q-3.015625 0.000000 -5.609375 -1.562500q-2.593750 -1.562500 -2.593750 -4.437500l0.000000 -0.781250q-1.750000 3.359375 -5.078125 5.375000q-3.312500 2.000000 -7.125000 2.000000q-6.296875 0.000000 -11.546875 -2.984375q-5.250000 -2.984375 -5.250000 -8.796875M20.796875 -3.421875q2.593750 0.000000 4.718750 -1.343750q2.125000 -1.343750 3.343750 -3.562500q1.218750 -2.218750 1.218750 -4.765625l0.000000 -10.000000q-3.562500 0.000000 -7.078125 1.390625q-3.515625 1.390625 -5.812500 4.125000q-2.296875 2.734375 -2.296875 6.390625q0.000000 2.843750 1.640625 5.312500q1.640625 2.453125 4.265625 2.453125"/>
<path id="c_3757157d94cc9c05b1a4181aee8626a9" d="M2.390625 -0.000000l0.000000 -5.078125l6.890625 0.000000l0.000000 -55.609375q0.000000 -1.859375 -1.953125 -2.328125q-1.953125 -0.468750 -4.937500 -0.468750l0.000000 -5.125000l18.125000 -0.781250l0.000000 64.312500l6.875000 0.000000l0.000000 5.078125z"/>
<path id="c_83fd63b8ac21b119aad30348d7612163" d="M1.421875 -0.000000l0.000000 -5.078125l6.875000 0.000000l0.000000 -31.203125q0.000000 -2.828125 -6.875000 -2.828125l0.000000 -5.078125l16.984375 -0.828125l0.000000 8.203125q1.421875 -3.718750 4.031250 -5.953125q2.609375 -2.250000 6.281250 -2.250000q2.625000 0.000000 5.234375 0.921875q2.625000 0.921875 4.328125 2.828125q1.703125 1.906250 1.703125 4.640625q0.000000 2.593750 -1.812500 4.453125q-1.796875 1.843750 -4.484375 1.843750q-2.687500 0.000000 -4.500000 -1.843750q-1.796875 -1.859375 -1.796875 -4.453125q0.000000 -2.640625 1.609375 -4.390625l-0.281250 0.000000q-5.468750 0.000000 -7.359375 5.890625q-1.875000 5.875000 -1.875000 13.000000l0.000000 17.046875l8.734375 0.000000l0.000000 5.078125z"/>
<path id="c_9dbafc617d9497d8fb4c3964ba4f7e7a" d="M2.390625 7.328125q0.000000 -2.890625 2.000000 -5.156250q2.000000 -2.265625 4.890625 -3.296875q-3.859375 -3.312500 -3.859375 -9.281250q0.000000 -5.125000 3.265625 -9.171875q-2.187500 -1.906250 -3.437500 -4.734375q-1.250000 -2.843750 -1.250000 -5.859375q0.000000 -4.796875 2.562500 -8.187500q2.562500 -3.390625 6.687500 -5.015625q4.140625 -1.640625 8.968750 -1.640625q7.125000 0.000000 11.859375 3.125000q3.859375 -3.625000 9.031250 -3.625000q2.343750 0.000000 3.859375 1.843750q1.515625 1.828125 1.515625 4.171875q0.000000 1.906250 -1.296875 3.203125q-1.281250 1.281250 -3.187500 1.281250q-1.812500 0.000000 -3.156250 -1.281250q-1.343750 -1.296875 -1.343750 -3.203125q0.000000 -0.687500 0.093750 -0.984375q0.062500 -0.187500 0.078125 -0.328125q0.031250 -0.156250 0.031250 -0.203125q-1.671875 0.484375 -2.890625 1.312500q3.562500 4.015625 3.562500 9.531250q0.000000 3.796875 -1.515625 6.593750q-1.500000 2.781250 -4.015625 4.593750q-2.515625 1.796875 -5.843750 2.750000q-3.312500 0.953125 -6.781250 0.953125q-6.390625 0.000000 -10.687500 -2.390625q-0.937500 1.406250 -0.937500 3.265625q0.000000 2.437500 1.640625 4.171875q1.640625 1.734375 4.078125 1.734375l8.781250 0.000000q10.359375 0.000000 16.390625 3.125000q6.031250 3.125000 6.031250 12.703125q0.000000 3.750000 -2.234375 6.234375q-2.218750 2.500000 -5.640625 3.906250q-3.406250 1.421875 -7.296875 2.031250q-3.875000 0.625000 -7.343750 0.625000q-4.984375 0.000000 -10.109375 -1.125000q-5.125000 -1.125000 -8.812500 -4.015625q-3.687500 -2.875000 -3.687500 -7.656250M11.375000 7.328125q0.000000 3.171875 2.093750 5.140625q2.109375 1.984375 5.203125 2.812500q3.109375 0.828125 6.328125 0.828125q5.125000 0.000000 9.296875 -2.093750q4.187500 -2.093750 4.187500 -6.687500q0.000000 -3.765625 -3.968750 -4.796875q-3.953125 -1.015625 -9.421875 -1.015625l-8.781250 0.000000q-2.390625 0.000000 -3.671875 1.625000q-1.265625 1.640625 -1.265625 4.187500M22.218750 -19.281250q3.125000 0.000000 4.578125 -1.515625q1.468750 -1.515625 1.781250 -3.656250q0.328125 -2.156250 0.328125 -5.531250l0.000000 -0.343750q0.000000 -3.359375 -0.328125 -5.500000q-0.312500 -2.156250 -1.781250 -3.671875q-1.453125 -1.515625 -4.578125 -1.515625q-3.031250 0.000000 -4.578125 1.500000q-1.531250 1.484375 -1.843750 3.640625q-0.312500 2.140625 -0.312500 5.546875l0.000000 0.343750q0.000000 3.375000 0.312500 5.531250q0.312500 2.140625 1.828125 3.656250q1.515625 1.515625 4.593750 1.515625"/>
</defs>
<g style="fill: #000000; opacity: 1.000000" transform="translate(286.368750,371.956250)scale(0.166600)">
<use xlink:href="#c_e3fdb29635ce9f0ac310df394ef66538"/>
<use xlink:href="#c_a269383f0f7176d0d1a0f4d4f9f927c0" x="60.009766"/>
<use xlink:href="#c_55644cb6340bdeb92831803ec66cf066" x="136.621094"/>
<use xlink:href="#c_d41d8cd98f00b204e9800998ecf8427e" x="212.109375"/>
<use xlink:href="#c_368a115d11f30032ab026f94b7604de1" x="245.410156"/>
<use xlink:href="#c_d41d8cd98f00b204e9800998ecf8427e" x="323.095703"/>
<use xlink:href="#c_4acecd18f759c9c1c023e82575eb30ca" x="356.396484"/>
<use xlink:href="#c_83adf764f9778718166b3c81e273116b" x="400.781250"/>
<use xlink:href="#c_c02259bade652f67eecca5e674f9d38c" x="450.781250"/>
<use xlink:href="#c_b18fdf7663e3349f8fd96cab2ccb18a8" x="506.298828"/>
<use xlink:href="#c_fd91a944b9cc71be1d0b5baa4bcebdb8" x="561.816406"/>
<use xlink:href="#c_63af600cbd42c037601e11aac7dfa175" x="589.501953"/>
<use xlink:href="#c_fd91a944b9cc71be1d0b5baa4bcebdb8" x="628.515625"/>
<use xlink:href="#c_83adf764f9778718166b3c81e273116b" x="656.201172"/>
<use xlink:href="#c_c02259bade652f67eecca5e674f9d38c" x="706.201172"/>
<use xlink:href="#c_bb3a2568f2aa9eada3f80ddfd89c5050" x="761.718750"/>
<use xlink:href="#c_3757157d94cc9c05b1a4181aee8626a9" x="810.302734"/>
<use xlink:href="#c_d41d8cd98f00b204e9800998ecf8427e" x="837.988281"/>
<use xlink:href="#c_83fd63b8ac21b119aad30348d7612163" x="871.289062"/>
<use xlink:href="#c_ca7684a39273c231267fab53f42a37a1" x="913.964844"/>
<use xlink:href="#c_9dbafc617d9497d8fb4c3964ba4f7e7a" x="960.546875"/>
<use xlink:href="#c_83fd63b8ac21b119aad30348d7612163" x="1010.546875"/>
<use xlink:href="#c_ca7684a39273c231267fab53f42a37a1" x="1053.222656"/>
<use xlink:href="#c_1d4a10d238002893c4e280909fcefabf" x="1099.804688"/>
<use xlink:href="#c_1d4a10d238002893c4e280909fcefabf" x="1139.208984"/>
<use xlink:href="#c_fd91a944b9cc71be1d0b5baa4bcebdb8" x="1178.613281"/>
<use xlink:href="#c_83adf764f9778718166b3c81e273116b" x="1206.298828"/>
<use xlink:href="#c_c02259bade652f67eecca5e674f9d38c" x="1256.298828"/>
</g>
</g>
</g>
</g>
</g>
</svg>
