<?xml version="1.0" standalone="no"?>
<!DOCTYPE svg PUBLIC "-//W3C//DTD SVG 1.1//EN"
  "http://www.w3.org/Graphics/SVG/1.1/DTD/svg11.dtd">
<!-- Created with matplotlib (http://matplotlib.sourceforge.net/) -->
<svg width="585pt" height="441pt" viewBox="0 0 585 441"
   xmlns="http://www.w3.org/2000/svg"
   xmlns:xlink="http://www.w3.org/1999/xlink"
   version="1.1"
   id="svg1">
<g id="figure1">
<g id="patch1">
<path style="fill: #ffffff; stroke: #ffffff; stroke-width: 1.000000; stroke-linejoin: round; stroke-linecap: square;  opacity: 1.000000"  d="M0.000000 441.000000L585.000000 441.000000L585.000000 0.000000
L0.000000 0.000000L0.000000 441.000000"/>
</g>
<g id="axes1">
<g id="patch2">
<path style="fill: #ffffff; opacity: 1.000000"  d="M73.125000 396.900000L526.500000 396.900000L526.500000 44.100000
L73.125000 44.100000L73.125000 396.900000"/>
</g>
<g id="line2d1">
<defs>
  <clipPath id="pc3c5e41676658680e7b95047b5791c8e">
<rect x="73.125000" y="44.100000" width="453.375000" height="352.800000"/>
  </clipPath>
</defs><path style="fill: none; stroke: #000000; stroke-width: 2.000000; stroke-linejoin: round; stroke-linecap: square;  opacity: 1.000000" clip-path="url(#pc3c5e41676658680e7b95047b5791c8e)" d="M100.074617 222.136599L100.841200 221.788960L103.489972 216.286604
L105.188188 215.949273L110.308448 210.237035L114.761417 208.971660
L123.464544 201.007757L134.329422 194.792849L151.131651 188.267960
L172.282330 181.353023L196.963880 173.102839L220.802772 175.605831
L256.003273 156.745484L287.882280 151.479554L328.138007 129.635504
L358.021281 124.196217L392.027099 110.292605L430.594304 86.300392
L454.364266 82.210194L477.661739 71.692372L493.824701 63.216557"/>
</g>
<g id="line2d2">
<path style="fill: none; stroke: #000000; stroke-width: 2.000000; stroke-linejoin: round; stroke-linecap: butt; stroke-dasharray: 6.000000,6.000000; stroke-dashoffset: 0.000000; opacity: 1.000000" clip-path="url(#pc3c5e41676658680e7b95047b5791c8e)" d="M79.252079 256.711528L79.902536 260.582445L81.076312 258.081562
L83.621581 253.997795L86.821636 251.806266L91.945638 243.326833
L98.330115 243.529725L105.171107 249.728023L118.540170 238.148629
L133.927535 232.758523L153.216097 219.271759L177.577173 207.298744
L205.412200 193.663982L236.798914 177.825094L269.784270 157.566712
L304.023876 148.884845L337.977487 135.731808L371.152908 115.659365
L402.104838 102.625324L429.165379 91.296981L452.715216 82.375606"/>
</g>
<g id="line2d3">
<path style="fill: none; stroke: #000000; stroke-width: 2.000000; stroke-linejoin: round; stroke-linecap: butt; stroke-dasharray: 1.000000,3.000000; stroke-dashoffset: 0.000000; opacity: 1.000000" clip-path="url(#pc3c5e41676658680e7b95047b5791c8e)" d="M78.924590 318.005113L79.956133 309.380843L80.939402 306.082766
L82.374707 307.316053L85.130135 295.695786L89.804621 286.118322
L96.249911 278.212267L107.458306 259.326384L123.196337 252.288398
L146.821922 235.487851L174.543762 225.579771L207.054894 206.953674
L241.433954 184.155859L276.911370 168.954203L314.159655 154.081614
L354.287198 133.495927L393.487644 110.400361L427.373181 90.464222
L460.785570 74.146062L482.646020 67.058197L498.475633 58.329905"/>
</g>
<g id="matplotlib.axis1">
<g id="xtick1">
<g id="line2d4">
<defs><path id="m30e32995789d870ad79a2e54c91cf9c6" d="M0.000000 0.000000L0.000000 -4.000000"/></defs>
<g ><use style="fill: none; stroke: #000000; stroke-width: 0.500000; stroke-linejoin: round; stroke-linecap: butt;  opacity: 1.000000" xlink:href="#m30e32995789d870ad79a2e54c91cf9c6" x="73.125000" y="396.900000"/>
</g></g>
<g id="line2d5">
<defs><path id="m9281cae24120827b11d5ea8a7ad3e96b" d="M0.000000 0.000000L0.000000 4.000000"/></defs>
<g ><use style="fill: none; stroke: #000000; stroke-width: 0.500000; stroke-linejoin: round; stroke-linecap: butt;  opacity: 1.000000" xlink:href="#m9281cae24120827b11d5ea8a7ad3e96b" x="73.125000" y="44.100000"/>
</g></g>
<g id="text1">
<defs>
<path id="c_bd189987bd89a7b3eb6aec75796a6bc8" d="M25.000000 1.125000q-6.640625 0.000000 -10.968750 -2.875000q-4.312500 -2.890625 -6.515625 -7.765625q-2.187500 -4.890625 -2.906250 -10.375000q-0.703125 -5.500000 -0.703125 -11.890625q0.000000 -8.937500 1.468750 -16.312500q1.468750 -7.375000 6.125000 -12.375000q4.656250 -5.015625 13.500000 -5.015625q12.640625 0.000000 16.812500 9.546875q4.187500 9.546875 4.187500 24.156250q0.000000 8.875000 -1.453125 16.031250q-1.437500 7.156250 -6.093750 12.015625q-4.656250 4.859375 -13.453125 4.859375M17.671875 -9.906250q0.828125 2.968750 2.734375 5.000000q1.906250 2.031250 4.593750 2.031250q2.593750 0.000000 4.515625 -2.078125q1.937500 -2.078125 2.656250 -4.953125q0.640625 -2.500000 0.640625 -23.593750q0.000000 -19.281250 -0.640625 -21.578125q-0.828125 -2.687500 -2.703125 -4.562500q-1.875000 -1.890625 -4.468750 -1.890625q-2.593750 0.000000 -4.500000 1.859375q-1.890625 1.859375 -2.828125 4.593750q-0.578125 2.296875 -0.578125 21.578125q0.000000 21.093750 0.578125 23.593750"/>
<path id="c_241e11cb1762a072e8e04703d844d767" d="M5.906250 -8.015625q0.000000 -3.218750 2.343750 -5.609375q2.343750 -2.390625 5.671875 -2.390625q3.312500 0.000000 5.656250 2.343750q2.343750 2.343750 2.343750 5.656250q0.000000 3.328125 -2.390625 5.671875q-2.390625 2.343750 -5.609375 2.343750q-3.234375 0.000000 -5.625000 -2.390625q-2.390625 -2.390625 -2.390625 -5.625000"/>
</defs>
<g style="fill: #000000; opacity: 1.000000" transform="translate(61.148438,413.993750)scale(0.200000)">
<use xlink:href="#c_bd189987bd89a7b3eb6aec75796a6bc8"/>
<use xlink:href="#c_241e11cb1762a072e8e04703d844d767" x="50.000000"/>
<use xlink:href="#c_bd189987bd89a7b3eb6aec75796a6bc8" x="77.685547"/>
</g>
</g>
</g>
<g id="xtick2">
<g id="line2d6">
<g ><use style="fill: none; stroke: #000000; stroke-width: 0.500000; stroke-linejoin: round; stroke-linecap: butt;  opacity: 1.000000" xlink:href="#m30e32995789d870ad79a2e54c91cf9c6" x="163.800000" y="396.900000"/>
</g></g>
<g id="line2d7">
<g ><use style="fill: none; stroke: #000000; stroke-width: 0.500000; stroke-linejoin: round; stroke-linecap: butt;  opacity: 1.000000" xlink:href="#m9281cae24120827b11d5ea8a7ad3e96b" x="163.800000" y="44.100000"/>
</g></g>
<g id="text2">
<defs>
<path id="c_435c0ad052e81ac792eef9745a69dda8" d="M4.984375 -0.000000l0.000000 -3.906250q0.046875 -0.250000 0.437500 -0.781250l15.281250 -19.187500q2.875000 -3.671875 5.078125 -7.187500q2.203125 -3.515625 3.562500 -7.359375q1.375000 -3.859375 1.375000 -7.875000q0.000000 -3.312500 -0.937500 -6.609375q-0.921875 -3.296875 -3.031250 -5.390625q-2.093750 -2.109375 -5.562500 -2.109375q-4.187500 0.000000 -7.265625 2.781250q2.687500 0.593750 4.296875 2.593750q1.609375 2.000000 1.609375 4.734375q0.000000 3.171875 -2.156250 5.281250q-2.140625 2.093750 -5.265625 2.093750q-2.109375 0.000000 -3.765625 -0.953125q-1.656250 -0.953125 -2.656250 -2.656250q-1.000000 -1.718750 -1.000000 -3.765625q0.000000 -4.640625 2.703125 -8.093750q2.718750 -3.468750 7.015625 -5.281250q4.296875 -1.812500 8.875000 -1.812500q5.671875 0.000000 10.578125 2.343750q4.906250 2.343750 7.828125 6.750000q2.937500 4.390625 2.937500 10.093750q0.000000 3.906250 -1.640625 7.234375q-1.625000 3.312500 -4.078125 5.890625q-2.437500 2.562500 -7.000000 6.468750q-4.562500 3.906250 -5.390625 4.687500l-9.531250 9.125000l4.406250 0.000000q15.328125 0.000000 15.812500 -0.593750q1.375000 -1.359375 2.296875 -9.125000l5.125000 0.000000l-3.125000 22.609375z"/>
</defs>
<g style="fill: #000000; opacity: 1.000000" transform="translate(151.932813,413.993750)scale(0.200000)">
<use xlink:href="#c_bd189987bd89a7b3eb6aec75796a6bc8"/>
<use xlink:href="#c_241e11cb1762a072e8e04703d844d767" x="50.000000"/>
<use xlink:href="#c_435c0ad052e81ac792eef9745a69dda8" x="77.685547"/>
</g>
</g>
</g>
<g id="xtick3">
<g id="line2d8">
<g ><use style="fill: none; stroke: #000000; stroke-width: 0.500000; stroke-linejoin: round; stroke-linecap: butt;  opacity: 1.000000" xlink:href="#m30e32995789d870ad79a2e54c91cf9c6" x="254.475000" y="396.900000"/>
</g></g>
<g id="line2d9">
<g ><use style="fill: none; stroke: #000000; stroke-width: 0.500000; stroke-linejoin: round; stroke-linecap: butt;  opacity: 1.000000" xlink:href="#m9281cae24120827b11d5ea8a7ad3e96b" x="254.475000" y="44.100000"/>
</g></g>
<g id="text3">
<defs>
<path id="c_a94c655bbde2d2217f8233435eb45e54" d="M17.093750 -0.000000l0.000000 -5.078125l9.718750 0.000000l0.000000 -10.406250l-24.031250 0.000000l0.000000 -5.125000l30.812500 -43.703125q0.593750 -0.875000 1.812500 -0.875000l2.484375 0.000000q0.828125 0.000000 1.312500 0.500000q0.500000 0.484375 0.500000 1.312500l0.000000 42.765625l7.421875 0.000000l0.000000 5.125000l-7.421875 0.000000l0.000000 10.406250l7.421875 0.000000l0.000000 5.078125zM8.203125 -20.609375l19.671875 0.000000l0.000000 -27.875000z"/>
</defs>
<g style="fill: #000000; opacity: 1.000000" transform="translate(242.389063,413.993750)scale(0.200000)">
<use xlink:href="#c_bd189987bd89a7b3eb6aec75796a6bc8"/>
<use xlink:href="#c_241e11cb1762a072e8e04703d844d767" x="50.000000"/>
<use xlink:href="#c_a94c655bbde2d2217f8233435eb45e54" x="77.685547"/>
</g>
</g>
</g>
<g id="xtick4">
<g id="line2d10">
<g ><use style="fill: none; stroke: #000000; stroke-width: 0.500000; stroke-linejoin: round; stroke-linecap: butt;  opacity: 1.000000" xlink:href="#m30e32995789d870ad79a2e54c91cf9c6" x="345.150000" y="396.900000"/>
</g></g>
<g id="line2d11">
<g ><use style="fill: none; stroke: #000000; stroke-width: 0.500000; stroke-linejoin: round; stroke-linecap: butt;  opacity: 1.000000" xlink:href="#m9281cae24120827b11d5ea8a7ad3e96b" x="345.150000" y="44.100000"/>
</g></g>
<g id="text4">
<defs>
<path id="c_2e75b3049153cd3e7b053d54935e87d1" d="M25.000000 1.125000q-6.343750 0.000000 -10.593750 -3.125000q-4.250000 -3.125000 -6.406250 -8.000000q-2.140625 -4.890625 -2.968750 -10.656250q-0.828125 -5.765625 -0.828125 -11.671875q0.000000 -8.687500 2.828125 -16.234375q2.828125 -7.546875 8.765625 -12.234375q5.937500 -4.687500 14.718750 -4.687500q5.765625 0.000000 9.234375 3.593750q3.468750 3.593750 3.468750 9.296875q0.000000 2.687500 -1.906250 4.546875q-1.906250 1.859375 -4.500000 1.859375q-2.687500 0.000000 -4.593750 -1.859375q-1.890625 -1.859375 -1.890625 -4.546875q0.000000 -2.484375 1.625000 -4.343750q1.640625 -1.859375 4.031250 -2.046875q-1.859375 -2.203125 -5.468750 -2.203125q-5.468750 0.000000 -8.187500 3.843750q-2.703125 3.828125 -3.406250 8.781250q-0.703125 4.953125 -0.703125 10.968750q2.968750 -4.406250 7.906250 -4.406250q6.109375 0.000000 10.593750 2.734375q4.500000 2.734375 6.734375 7.578125q2.250000 4.828125 2.250000 11.078125q0.000000 9.718750 -5.546875 15.734375q-5.531250 6.000000 -15.156250 6.000000M25.000000 -3.609375q2.156250 0.000000 3.859375 -1.093750q1.703125 -1.109375 2.343750 -3.109375q0.484375 -2.296875 0.484375 -12.703125l0.000000 -0.281250q0.000000 -10.984375 -0.390625 -13.000000q-0.578125 -1.890625 -2.140625 -3.031250q-1.562500 -1.156250 -3.671875 -1.156250q-4.531250 0.000000 -5.859375 4.828125q-1.312500 4.828125 -1.312500 11.031250l0.000000 1.718750q0.000000 6.640625 1.171875 11.718750q1.171875 5.078125 5.515625 5.078125"/>
</defs>
<g style="fill: #000000; opacity: 1.000000" transform="translate(333.204688,413.993750)scale(0.200000)">
<use xlink:href="#c_bd189987bd89a7b3eb6aec75796a6bc8"/>
<use xlink:href="#c_241e11cb1762a072e8e04703d844d767" x="50.000000"/>
<use xlink:href="#c_2e75b3049153cd3e7b053d54935e87d1" x="77.685547"/>
</g>
</g>
</g>
<g id="xtick5">
<g id="line2d12">
<g ><use style="fill: none; stroke: #000000; stroke-width: 0.500000; stroke-linejoin: round; stroke-linecap: butt;  opacity: 1.000000" xlink:href="#m30e32995789d870ad79a2e54c91cf9c6" x="435.825000" y="396.900000"/>
</g></g>
<g id="line2d13">
<g ><use style="fill: none; stroke: #000000; stroke-width: 0.500000; stroke-linejoin: round; stroke-linecap: butt;  opacity: 1.000000" xlink:href="#m9281cae24120827b11d5ea8a7ad3e96b" x="435.825000" y="44.100000"/>
</g></g>
<g id="text5">
<defs>
<path id="c_56240f3e9382366e63f8314dd529d1d8" d="M4.203125 -16.406250q0.000000 -5.218750 2.781250 -9.218750q2.781250 -4.015625 7.812500 -7.000000q-3.609375 -2.437500 -5.765625 -6.453125q-2.140625 -4.031250 -2.140625 -8.437500q0.000000 -5.265625 2.265625 -9.359375q2.265625 -4.109375 6.359375 -6.359375q4.109375 -2.250000 9.484375 -2.250000q4.828125 0.000000 8.921875 1.671875q4.109375 1.656250 6.593750 5.046875q2.500000 3.390625 2.500000 8.281250q0.000000 8.156250 -8.390625 13.281250q5.359375 3.359375 8.218750 7.718750q2.859375 4.343750 2.859375 10.296875q0.000000 4.531250 -1.500000 8.343750q-1.484375 3.812500 -4.187500 6.421875q-2.703125 2.609375 -6.593750 4.078125q-3.875000 1.468750 -8.421875 1.468750q-5.718750 0.000000 -10.453125 -1.953125q-4.734375 -1.953125 -7.546875 -5.875000q-2.796875 -3.937500 -2.796875 -9.703125M25.000000 -3.609375q4.984375 0.000000 8.343750 -2.593750q3.375000 -2.593750 3.375000 -7.421875q0.000000 -2.343750 -1.296875 -4.468750q-1.296875 -2.125000 -3.437500 -3.484375l-12.593750 -8.109375q-3.031250 2.296875 -4.625000 5.859375q-1.578125 3.562500 -1.578125 7.421875q0.000000 5.562500 3.140625 9.187500q3.156250 3.609375 8.671875 3.609375M18.406250 -47.703125l11.765625 7.609375q2.390625 -2.093750 3.656250 -4.703125q1.281250 -2.609375 1.281250 -5.687500q0.000000 -4.734375 -2.734375 -7.718750q-2.734375 -2.984375 -7.468750 -2.984375q-4.156250 0.000000 -7.140625 1.890625q-2.968750 1.875000 -2.968750 5.781250q0.000000 1.750000 1.015625 3.312500q1.031250 1.562500 2.593750 2.500000"/>
</defs>
<g style="fill: #000000; opacity: 1.000000" transform="translate(423.879688,413.993750)scale(0.200000)">
<use xlink:href="#c_bd189987bd89a7b3eb6aec75796a6bc8"/>
<use xlink:href="#c_241e11cb1762a072e8e04703d844d767" x="50.000000"/>
<use xlink:href="#c_56240f3e9382366e63f8314dd529d1d8" x="77.685547"/>
</g>
</g>
</g>
<g id="xtick6">
<g id="line2d14">
<g ><use style="fill: none; stroke: #000000; stroke-width: 0.500000; stroke-linejoin: round; stroke-linecap: butt;  opacity: 1.000000" xlink:href="#m30e32995789d870ad79a2e54c91cf9c6" x="526.500000" y="396.900000"/>
</g></g>
<g id="line2d15">
<g ><use style="fill: none; stroke: #000000; stroke-width: 0.500000; stroke-linejoin: round; stroke-linecap: butt;  opacity: 1.000000" xlink:href="#m9281cae24120827b11d5ea8a7ad3e96b" x="526.500000" y="44.100000"/>
</g></g>
<g id="text6">
<defs>
<path id="c_7b019f7db3d11a6a9a374c851b938a61" d="M8.296875 -0.000000l0.000000 -5.078125l10.984375 0.000000l0.000000 -50.531250q-5.171875 1.609375 -12.390625 1.609375l0.000000 -5.078125q13.953125 0.000000 20.703125 -6.406250l2.390625 0.000000q1.312500 0.296875 1.609375 1.562500l0.000000 58.843750l11.421875 0.000000l0.000000 5.078125z"/>
</defs>
<g style="fill: #000000; opacity: 1.000000" transform="translate(514.820312,413.993750)scale(0.200000)">
<use xlink:href="#c_7b019f7db3d11a6a9a374c851b938a61"/>
<use xlink:href="#c_241e11cb1762a072e8e04703d844d767" x="50.000000"/>
<use xlink:href="#c_bd189987bd89a7b3eb6aec75796a6bc8" x="77.685547"/>
</g>
</g>
</g>
</g>
<g id="matplotlib.axis2">
<g id="ytick1">
<g id="line2d16">
<defs><path id="m3400efa6b1638b3fea9e19e898273957" d="M0.000000 0.000000L4.000000 0.000000"/></defs>
<g ><use style="fill: none; stroke: #000000; stroke-width: 0.500000; stroke-linejoin: round; stroke-linecap: butt;  opacity: 1.000000" xlink:href="#m3400efa6b1638b3fea9e19e898273957" x="73.125000" y="396.900000"/>
</g></g>
<g id="line2d17">
<defs><path id="m20b58b2501143cb5e0a5e8f1ef6f1643" d="M0.000000 0.000000L-4.000000 0.000000"/></defs>
<g ><use style="fill: none; stroke: #000000; stroke-width: 0.500000; stroke-linejoin: round; stroke-linecap: butt;  opacity: 1.000000" xlink:href="#m20b58b2501143cb5e0a5e8f1ef6f1643" x="526.500000" y="396.900000"/>
</g></g>
<g id="text7">
<g style="fill: #000000; opacity: 1.000000" transform="translate(45.171875,403.337500)scale(0.200000)">
<use xlink:href="#c_bd189987bd89a7b3eb6aec75796a6bc8"/>
<use xlink:href="#c_241e11cb1762a072e8e04703d844d767" x="50.000000"/>
<use xlink:href="#c_bd189987bd89a7b3eb6aec75796a6bc8" x="77.685547"/>
</g>
</g>
</g>
<g id="ytick2">
<g id="line2d18">
<g ><use style="fill: none; stroke: #000000; stroke-width: 0.500000; stroke-linejoin: round; stroke-linecap: butt;  opacity: 1.000000" xlink:href="#m3400efa6b1638b3fea9e19e898273957" x="73.125000" y="326.340000"/>
</g></g>
<g id="line2d19">
<g ><use style="fill: none; stroke: #000000; stroke-width: 0.500000; stroke-linejoin: round; stroke-linecap: butt;  opacity: 1.000000" xlink:href="#m20b58b2501143cb5e0a5e8f1ef6f1643" x="526.500000" y="326.340000"/>
</g></g>
<g id="text8">
<g style="fill: #000000; opacity: 1.000000" transform="translate(45.390625,332.777500)scale(0.200000)">
<use xlink:href="#c_bd189987bd89a7b3eb6aec75796a6bc8"/>
<use xlink:href="#c_241e11cb1762a072e8e04703d844d767" x="50.000000"/>
<use xlink:href="#c_435c0ad052e81ac792eef9745a69dda8" x="77.685547"/>
</g>
</g>
</g>
<g id="ytick3">
<g id="line2d20">
<g ><use style="fill: none; stroke: #000000; stroke-width: 0.500000; stroke-linejoin: round; stroke-linecap: butt;  opacity: 1.000000" xlink:href="#m3400efa6b1638b3fea9e19e898273957" x="73.125000" y="255.780000"/>
</g></g>
<g id="line2d21">
<g ><use style="fill: none; stroke: #000000; stroke-width: 0.500000; stroke-linejoin: round; stroke-linecap: butt;  opacity: 1.000000" xlink:href="#m20b58b2501143cb5e0a5e8f1ef6f1643" x="526.500000" y="255.780000"/>
</g></g>
<g id="text9">
<g style="fill: #000000; opacity: 1.000000" transform="translate(44.953125,262.217500)scale(0.200000)">
<use xlink:href="#c_bd189987bd89a7b3eb6aec75796a6bc8"/>
<use xlink:href="#c_241e11cb1762a072e8e04703d844d767" x="50.000000"/>
<use xlink:href="#c_a94c655bbde2d2217f8233435eb45e54" x="77.685547"/>
</g>
</g>
</g>
<g id="ytick4">
<g id="line2d22">
<g ><use style="fill: none; stroke: #000000; stroke-width: 0.500000; stroke-linejoin: round; stroke-linecap: butt;  opacity: 1.000000" xlink:href="#m3400efa6b1638b3fea9e19e898273957" x="73.125000" y="185.220000"/>
</g></g>
<g id="line2d23">
<g ><use style="fill: none; stroke: #000000; stroke-width: 0.500000; stroke-linejoin: round; stroke-linecap: butt;  opacity: 1.000000" xlink:href="#m20b58b2501143cb5e0a5e8f1ef6f1643" x="526.500000" y="185.220000"/>
</g></g>
<g id="text10">
<g style="fill: #000000; opacity: 1.000000" transform="translate(45.234375,191.657500)scale(0.200000)">
<use xlink:href="#c_bd189987bd89a7b3eb6aec75796a6bc8"/>
<use xlink:href="#c_241e11cb1762a072e8e04703d844d767" x="50.000000"/>
<use xlink:href="#c_2e75b3049153cd3e7b053d54935e87d1" x="77.685547"/>
</g>
</g>
</g>
<g id="ytick5">
<g id="line2d24">
<g ><use style="fill: none; stroke: #000000; stroke-width: 0.500000; stroke-linejoin: round; stroke-linecap: butt;  opacity: 1.000000" xlink:href="#m3400efa6b1638b3fea9e19e898273957" x="73.125000" y="114.660000"/>
</g></g>
<g id="line2d25">
<g ><use style="fill: none; stroke: #000000; stroke-width: 0.500000; stroke-linejoin: round; stroke-linecap: butt;  opacity: 1.000000" xlink:href="#m20b58b2501143cb5e0a5e8f1ef6f1643" x="526.500000" y="114.660000"/>
</g></g>
<g id="text11">
<g style="fill: #000000; opacity: 1.000000" transform="translate(45.234375,121.097500)scale(0.200000)">
<use xlink:href="#c_bd189987bd89a7b3eb6aec75796a6bc8"/>
<use xlink:href="#c_241e11cb1762a072e8e04703d844d767" x="50.000000"/>
<use xlink:href="#c_56240f3e9382366e63f8314dd529d1d8" x="77.685547"/>
</g>
</g>
</g>
<g id="ytick6">
<g id="line2d26">
<g ><use style="fill: none; stroke: #000000; stroke-width: 0.500000; stroke-linejoin: round; stroke-linecap: butt;  opacity: 1.000000" xlink:href="#m3400efa6b1638b3fea9e19e898273957" x="73.125000" y="44.100000"/>
</g></g>
<g id="line2d27">
<g ><use style="fill: none; stroke: #000000; stroke-width: 0.500000; stroke-linejoin: round; stroke-linecap: butt;  opacity: 1.000000" xlink:href="#m20b58b2501143cb5e0a5e8f1ef6f1643" x="526.500000" y="44.100000"/>
</g></g>
<g id="text12">
<g style="fill: #000000; opacity: 1.000000" transform="translate(45.765625,50.537500)scale(0.200000)">
<use xlink:href="#c_7b019f7db3d11a6a9a374c851b938a61"/>
<use xlink:href="#c_241e11cb1762a072e8e04703d844d767" x="50.000000"/>
<use xlink:href="#c_bd189987bd89a7b3eb6aec75796a6bc8" x="77.685547"/>
</g>
</g>
</g>
</g>
<g id="patch3">
<path style="fill: none; stroke: #000000; stroke-width: 1.000000; stroke-linejoin: round; stroke-linecap: square;  opacity: 1.000000"  d="M73.125000 44.100000L526.500000 44.100000"/>
</g>
<g id="patch4">
<path style="fill: none; stroke: #000000; stroke-width: 1.000000; stroke-linejoin: round; stroke-linecap: square;  opacity: 1.000000"  d="M526.500000 396.900000L526.500000 44.100000"/>
</g>
<g id="patch5">
<path style="fill: none; stroke: #000000; stroke-width: 1.000000; stroke-linejoin: round; stroke-linecap: square;  opacity: 1.000000"  d="M73.125000 396.900000L526.500000 396.900000"/>
</g>
<g id="patch6">
<path style="fill: none; stroke: #000000; stroke-width: 1.000000; stroke-linejoin: round; stroke-linecap: square;  opacity: 1.000000"  d="M73.125000 396.900000L73.125000 44.100000"/>
</g>
</g>
</g>
</svg>
