<?xml version="1.0" standalone="no"?>
<!DOCTYPE svg PUBLIC "-//W3C//DTD SVG 1.1//EN"
  "http://www.w3.org/Graphics/SVG/1.1/DTD/svg11.dtd">
<!-- Created with matplotlib (http://matplotlib.sourceforge.net/) -->
<svg width="576pt" height="432pt" viewBox="0 0 576 432"
   xmlns="http://www.w3.org/2000/svg"
   xmlns:xlink="http://www.w3.org/1999/xlink"
   version="1.1"
   id="svg1">
<g id="figure1">
<g id="patch1">
<path style="fill: #ffffff; stroke: #ffffff; stroke-width: 1.000000; stroke-linejoin: round; stroke-linecap: square;  opacity: 1.000000"  d="M0.000000 432.000000L576.000000 432.000000L576.000000 0.000000
L0.000000 0.000000L0.000000 432.000000"/>
</g>
<g id="axes1">
<g id="patch2">
<path style="fill: #ffffff; opacity: 1.000000"  d="M72.000000 388.800000L518.400000 388.800000L518.400000 43.200000
L72.000000 43.200000L72.000000 388.800000"/>
</g>
<g id="line2d1">
<defs>
  <clipPath id="p50431ccdcb28178602d99d9270004dde">
<rect x="72.000000" y="43.200000" width="446.400000" height="345.600000"/>
  </clipPath>
</defs><path style="fill: none; stroke: #000000; stroke-width: 2.000000; stroke-linejoin: round; stroke-linecap: square;  opacity: 1.000000" clip-path="url(#p50431ccdcb28178602d99d9270004dde)" d="M72.000000 48.326285L95.494737 53.584947L118.989474 62.687847
L142.484211 77.117392L165.978947 98.043022L189.473684 125.790288
L212.968421 159.442709L236.463158 196.830465L259.957895 234.988305
L283.452632 270.906722L306.947368 302.250829L330.442105 327.771796
L353.936842 347.315689L377.431579 361.522607L400.926316 371.414097
L424.421053 378.052025L447.915789 382.352681L471.410526 385.036349
L494.905263 386.645248L518.400000 387.574993"/>
</g>
<g id="line2d2">
<path style="fill: none; stroke: #000000; stroke-width: 2.000000; stroke-linejoin: round; stroke-linecap: butt; stroke-dasharray: 6.000000,6.000000; stroke-dashoffset: 0.000000; opacity: 1.000000" clip-path="url(#p50431ccdcb28178602d99d9270004dde)" d="M72.000000 47.748243L95.494737 52.601912L118.989474 61.110866
L142.484211 74.724352L165.978947 94.620018L189.473684 121.213036
L212.968421 153.772110L236.463158 190.360746L259.957895 228.198602
L283.452632 264.330402L306.947368 296.330036L330.442105 322.762111
L353.936842 343.268480L377.431579 358.336638L400.926316 368.922968
L424.421053 376.103337L447.915789 380.845831L471.410526 383.914737
L494.905263 385.865550L518.400000 387.082539"/>
</g>
<g id="line2d3">
<path style="fill: none; stroke: #000000; stroke-width: 2.000000; stroke-linejoin: round; stroke-linecap: butt; stroke-dasharray: 3.000000,5.000000,1.000000,5.000000; stroke-dashoffset: 0.000000; opacity: 1.000000" clip-path="url(#p50431ccdcb28178602d99d9270004dde)" d="M72.000000 47.707608L95.494737 53.049580L118.989474 63.285087
L142.484211 81.234300L165.978947 109.680581L189.473684 149.744242
L212.968421 198.873262L236.463158 250.207898L259.957895 295.150700
L283.452632 328.118998L306.947368 349.177430L330.442105 362.073231
L353.936842 370.535564L377.431579 376.592728L400.926316 381.008767
L424.421053 384.101741L447.915789 386.133521L471.410526 387.377271
L494.905263 388.086253L518.400000 388.462985"/>
</g>
<g id="line2d4">
<path style="fill: none; stroke: #000000; stroke-width: 2.000000; stroke-linejoin: round; stroke-linecap: butt; stroke-dasharray: 1.000000,3.000000; stroke-dashoffset: 0.000000; opacity: 1.000000" clip-path="url(#p50431ccdcb28178602d99d9270004dde)" d="M72.000000 47.670031L95.494737 52.592175L118.989474 61.366301
L142.484211 75.594458L165.978947 96.566344L189.473684 124.659845
L212.968421 158.899776L236.463158 196.969845L259.957895 235.746126
L283.452632 272.118895L306.947368 303.734604L330.442105 329.382958
L353.936842 348.961443L377.431579 363.140534L400.926316 372.943296
L424.421053 379.419487L447.915789 383.484434L471.410526 385.886136
L494.905263 387.218244L518.400000 387.924576"/>
</g>
<g id="matplotlib.axis1">
<g id="xtick1">
<g id="line2d5">
<defs><path id="m30e32995789d870ad79a2e54c91cf9c6" d="M0.000000 0.000000L0.000000 -4.000000"/></defs>
<g ><use style="fill: none; stroke: #000000; stroke-width: 0.500000; stroke-linejoin: round; stroke-linecap: butt;  opacity: 1.000000" xlink:href="#m30e32995789d870ad79a2e54c91cf9c6" x="72.000000" y="388.800000"/>
</g></g>
<g id="line2d6">
<defs><path id="m9281cae24120827b11d5ea8a7ad3e96b" d="M0.000000 0.000000L0.000000 4.000000"/></defs>
<g ><use style="fill: none; stroke: #000000; stroke-width: 0.500000; stroke-linejoin: round; stroke-linecap: butt;  opacity: 1.000000" xlink:href="#m9281cae24120827b11d5ea8a7ad3e96b" x="72.000000" y="43.200000"/>
</g></g>
<g id="text1">
<defs>
<path id="c_22ceb60286fb41ae04c1a66e208329f1" d="M12.500000 -0.000000l0.000000 -62.500000l50.000000 0.000000l0.000000 62.500000zM60.890625 -1.609375l0.000000 -59.281250l-46.781250 0.000000l0.000000 59.281250z"/>
<path id="c_dcbf87dcd66151f77d2b78e67877de5b" d="M13.812500 -6.593750q3.859375 2.984375 9.281250 2.984375q4.546875 0.000000 5.718750 -4.203125q1.171875 -4.203125 1.171875 -10.296875l0.000000 -0.296875q0.000000 -6.062500 -1.218750 -10.234375q-1.218750 -4.171875 -5.859375 -4.171875l-4.890625 0.000000q-1.078125 -0.250000 -1.312500 -1.265625l0.000000 -1.515625q0.296875 -0.984375 1.312500 -1.218750l4.000000 -0.296875q3.968750 0.000000 5.421875 -4.687500q1.468750 -4.687500 1.468750 -9.906250q0.000000 -4.359375 -1.078125 -6.921875q-1.062500 -2.562500 -4.734375 -2.562500q-4.828125 0.000000 -8.109375 3.281250q2.843750 0.390625 4.515625 2.375000q1.687500 1.968750 1.687500 4.750000q0.000000 2.984375 -2.046875 5.031250q-2.046875 2.046875 -5.031250 2.046875q-3.078125 0.000000 -5.156250 -2.015625q-2.062500 -2.031250 -2.062500 -5.062500q0.000000 -6.296875 4.859375 -10.500000q4.859375 -4.203125 11.343750 -4.203125q3.562500 0.000000 7.031250 0.734375q3.468750 0.734375 6.390625 2.343750q2.937500 1.609375 4.718750 4.281250q1.781250 2.656250 1.781250 6.515625q0.000000 3.812500 -1.718750 7.109375q-1.703125 3.281250 -4.578125 5.703125q-2.875000 2.421875 -6.546875 3.890625q4.406250 0.921875 7.921875 3.171875q3.515625 2.234375 5.562500 5.656250q2.046875 3.421875 2.046875 7.859375q0.000000 6.250000 -3.109375 10.625000q-3.093750 4.375000 -8.250000 6.546875q-5.140625 2.171875 -11.250000 2.171875q-3.359375 0.000000 -6.656250 -0.984375q-3.296875 -0.968750 -6.140625 -3.000000q-2.828125 -2.031250 -4.468750 -4.984375q-1.625000 -2.953125 -1.625000 -6.468750q0.000000 -3.265625 2.265625 -5.531250q2.265625 -2.281250 5.640625 -2.281250q2.156250 0.000000 3.953125 1.031250q1.812500 1.031250 2.828125 2.843750q1.031250 1.796875 1.031250 3.937500q0.000000 2.890625 -1.656250 4.937500q-1.656250 2.046875 -4.453125 2.781250"/>
</defs>
<g style="fill: #000000; opacity: 1.000000" transform="translate(62.257812,404.581250)scale(0.180000)">
<use xlink:href="#c_22ceb60286fb41ae04c1a66e208329f1"/>
<use xlink:href="#c_dcbf87dcd66151f77d2b78e67877de5b" x="47.216797"/>
</g>
</g>
</g>
<g id="xtick2">
<g id="line2d7">
<g ><use style="fill: none; stroke: #000000; stroke-width: 0.500000; stroke-linejoin: round; stroke-linecap: butt;  opacity: 1.000000" xlink:href="#m30e32995789d870ad79a2e54c91cf9c6" x="146.400000" y="388.800000"/>
</g></g>
<g id="line2d8">
<g ><use style="fill: none; stroke: #000000; stroke-width: 0.500000; stroke-linejoin: round; stroke-linecap: butt;  opacity: 1.000000" xlink:href="#m9281cae24120827b11d5ea8a7ad3e96b" x="146.400000" y="43.200000"/>
</g></g>
<g id="text2">
<defs>
<path id="c_435c0ad052e81ac792eef9745a69dda8" d="M4.984375 -0.000000l0.000000 -3.906250q0.046875 -0.250000 0.437500 -0.781250l15.281250 -19.187500q2.875000 -3.671875 5.078125 -7.187500q2.203125 -3.515625 3.562500 -7.359375q1.375000 -3.859375 1.375000 -7.875000q0.000000 -3.312500 -0.937500 -6.609375q-0.921875 -3.296875 -3.031250 -5.390625q-2.093750 -2.109375 -5.562500 -2.109375q-4.187500 0.000000 -7.265625 2.781250q2.687500 0.593750 4.296875 2.593750q1.609375 2.000000 1.609375 4.734375q0.000000 3.171875 -2.156250 5.281250q-2.140625 2.093750 -5.265625 2.093750q-2.109375 0.000000 -3.765625 -0.953125q-1.656250 -0.953125 -2.656250 -2.656250q-1.000000 -1.718750 -1.000000 -3.765625q0.000000 -4.640625 2.703125 -8.093750q2.718750 -3.468750 7.015625 -5.281250q4.296875 -1.812500 8.875000 -1.812500q5.671875 0.000000 10.578125 2.343750q4.906250 2.343750 7.828125 6.750000q2.937500 4.390625 2.937500 10.093750q0.000000 3.906250 -1.640625 7.234375q-1.625000 3.312500 -4.078125 5.890625q-2.437500 2.562500 -7.000000 6.468750q-4.562500 3.906250 -5.390625 4.687500l-9.531250 9.125000l4.406250 0.000000q15.328125 0.000000 15.812500 -0.593750q1.375000 -1.359375 2.296875 -9.125000l5.125000 0.000000l-3.125000 22.609375z"/>
</defs>
<g style="fill: #000000; opacity: 1.000000" transform="translate(136.728125,404.581250)scale(0.180000)">
<use xlink:href="#c_22ceb60286fb41ae04c1a66e208329f1"/>
<use xlink:href="#c_435c0ad052e81ac792eef9745a69dda8" x="47.216797"/>
</g>
</g>
</g>
<g id="xtick3">
<g id="line2d9">
<g ><use style="fill: none; stroke: #000000; stroke-width: 0.500000; stroke-linejoin: round; stroke-linecap: butt;  opacity: 1.000000" xlink:href="#m30e32995789d870ad79a2e54c91cf9c6" x="220.800000" y="388.800000"/>
</g></g>
<g id="line2d10">
<g ><use style="fill: none; stroke: #000000; stroke-width: 0.500000; stroke-linejoin: round; stroke-linecap: butt;  opacity: 1.000000" xlink:href="#m9281cae24120827b11d5ea8a7ad3e96b" x="220.800000" y="43.200000"/>
</g></g>
<g id="text3">
<defs>
<path id="c_7b019f7db3d11a6a9a374c851b938a61" d="M8.296875 -0.000000l0.000000 -5.078125l10.984375 0.000000l0.000000 -50.531250q-5.171875 1.609375 -12.390625 1.609375l0.000000 -5.078125q13.953125 0.000000 20.703125 -6.406250l2.390625 0.000000q1.312500 0.296875 1.609375 1.562500l0.000000 58.843750l11.421875 0.000000l0.000000 5.078125z"/>
</defs>
<g style="fill: #000000; opacity: 1.000000" transform="translate(211.300000,404.581250)scale(0.180000)">
<use xlink:href="#c_22ceb60286fb41ae04c1a66e208329f1"/>
<use xlink:href="#c_7b019f7db3d11a6a9a374c851b938a61" x="47.216797"/>
</g>
</g>
</g>
<g id="xtick4">
<g id="line2d11">
<g ><use style="fill: none; stroke: #000000; stroke-width: 0.500000; stroke-linejoin: round; stroke-linecap: butt;  opacity: 1.000000" xlink:href="#m30e32995789d870ad79a2e54c91cf9c6" x="295.200000" y="388.800000"/>
</g></g>
<g id="line2d12">
<g ><use style="fill: none; stroke: #000000; stroke-width: 0.500000; stroke-linejoin: round; stroke-linecap: butt;  opacity: 1.000000" xlink:href="#m9281cae24120827b11d5ea8a7ad3e96b" x="295.200000" y="43.200000"/>
</g></g>
<g id="text4">
<defs>
<path id="c_bd189987bd89a7b3eb6aec75796a6bc8" d="M25.000000 1.125000q-6.640625 0.000000 -10.968750 -2.875000q-4.312500 -2.890625 -6.515625 -7.765625q-2.187500 -4.890625 -2.906250 -10.375000q-0.703125 -5.500000 -0.703125 -11.890625q0.000000 -8.937500 1.468750 -16.312500q1.468750 -7.375000 6.125000 -12.375000q4.656250 -5.015625 13.500000 -5.015625q12.640625 0.000000 16.812500 9.546875q4.187500 9.546875 4.187500 24.156250q0.000000 8.875000 -1.453125 16.031250q-1.437500 7.156250 -6.093750 12.015625q-4.656250 4.859375 -13.453125 4.859375M17.671875 -9.906250q0.828125 2.968750 2.734375 5.000000q1.906250 2.031250 4.593750 2.031250q2.593750 0.000000 4.515625 -2.078125q1.937500 -2.078125 2.656250 -4.953125q0.640625 -2.500000 0.640625 -23.593750q0.000000 -19.281250 -0.640625 -21.578125q-0.828125 -2.687500 -2.703125 -4.562500q-1.875000 -1.890625 -4.468750 -1.890625q-2.593750 0.000000 -4.500000 1.859375q-1.890625 1.859375 -2.828125 4.593750q-0.578125 2.296875 -0.578125 21.578125q0.000000 21.093750 0.578125 23.593750"/>
</defs>
<g style="fill: #000000; opacity: 1.000000" transform="translate(291.410937,404.581250)scale(0.180000)">
<use xlink:href="#c_bd189987bd89a7b3eb6aec75796a6bc8"/>
</g>
</g>
</g>
<g id="xtick5">
<g id="line2d13">
<g ><use style="fill: none; stroke: #000000; stroke-width: 0.500000; stroke-linejoin: round; stroke-linecap: butt;  opacity: 1.000000" xlink:href="#m30e32995789d870ad79a2e54c91cf9c6" x="369.600000" y="388.800000"/>
</g></g>
<g id="line2d14">
<g ><use style="fill: none; stroke: #000000; stroke-width: 0.500000; stroke-linejoin: round; stroke-linecap: butt;  opacity: 1.000000" xlink:href="#m9281cae24120827b11d5ea8a7ad3e96b" x="369.600000" y="43.200000"/>
</g></g>
<g id="text5">
<g style="fill: #000000; opacity: 1.000000" transform="translate(366.342187,404.581250)scale(0.180000)">
<use xlink:href="#c_7b019f7db3d11a6a9a374c851b938a61"/>
</g>
</g>
</g>
<g id="xtick6">
<g id="line2d15">
<g ><use style="fill: none; stroke: #000000; stroke-width: 0.500000; stroke-linejoin: round; stroke-linecap: butt;  opacity: 1.000000" xlink:href="#m30e32995789d870ad79a2e54c91cf9c6" x="444.000000" y="388.800000"/>
</g></g>
<g id="line2d16">
<g ><use style="fill: none; stroke: #000000; stroke-width: 0.500000; stroke-linejoin: round; stroke-linecap: butt;  opacity: 1.000000" xlink:href="#m9281cae24120827b11d5ea8a7ad3e96b" x="444.000000" y="43.200000"/>
</g></g>
<g id="text6">
<g style="fill: #000000; opacity: 1.000000" transform="translate(440.398438,404.581250)scale(0.180000)">
<use xlink:href="#c_435c0ad052e81ac792eef9745a69dda8"/>
</g>
</g>
</g>
<g id="xtick7">
<g id="line2d17">
<g ><use style="fill: none; stroke: #000000; stroke-width: 0.500000; stroke-linejoin: round; stroke-linecap: butt;  opacity: 1.000000" xlink:href="#m30e32995789d870ad79a2e54c91cf9c6" x="518.400000" y="388.800000"/>
</g></g>
<g id="line2d18">
<g ><use style="fill: none; stroke: #000000; stroke-width: 0.500000; stroke-linejoin: round; stroke-linecap: butt;  opacity: 1.000000" xlink:href="#m9281cae24120827b11d5ea8a7ad3e96b" x="518.400000" y="43.200000"/>
</g></g>
<g id="text7">
<g style="fill: #000000; opacity: 1.000000" transform="translate(514.657812,404.581250)scale(0.180000)">
<use xlink:href="#c_dcbf87dcd66151f77d2b78e67877de5b"/>
</g>
</g>
</g>
<g id="text8">
<defs>
<path id="c_f49360f2586de9e4b02d6b7f5f0d0304" d="M14.015625 -0.000000l0.000000 -5.078125l13.375000 0.000000l0.000000 -58.406250l-4.875000 0.000000q-6.453125 0.000000 -10.015625 3.859375q-1.265625 1.515625 -2.031250 4.031250q-0.750000 2.515625 -1.140625 5.546875q-0.390625 3.031250 -0.640625 5.953125l-5.078125 0.000000l2.109375 -24.515625l57.906250 0.000000l2.093750 24.515625l-5.125000 0.000000q-0.531250 -6.156250 -1.265625 -9.859375q-0.734375 -3.718750 -2.546875 -5.671875q-3.562500 -3.859375 -10.000000 -3.859375l-4.781250 0.000000l0.000000 58.406250l13.421875 0.000000l0.000000 5.078125z"/>
<path id="c_0c96f4663318b3b497bee66bebe3b890" d="M2.203125 -0.000000l0.000000 -5.078125l6.875000 0.000000l0.000000 -55.609375q0.000000 -1.859375 -1.953125 -2.328125q-1.953125 -0.468750 -4.921875 -0.468750l0.000000 -5.125000l18.109375 -0.781250l0.000000 33.203125q2.343750 -4.046875 6.156250 -6.437500q3.812500 -2.390625 8.343750 -2.390625q4.890625 0.000000 7.890625 1.546875q3.000000 1.531250 4.437500 4.687500q1.437500 3.140625 1.437500 8.062500l0.000000 25.640625l6.937500 0.000000l0.000000 5.078125l-24.796875 0.000000l0.000000 -5.078125l6.093750 0.000000l0.000000 -25.343750l0.000000 -0.296875q0.000000 -10.296875 -3.218750 -10.296875q-2.828125 0.000000 -5.203125 1.250000q-2.359375 1.234375 -4.046875 3.406250q-1.687500 2.171875 -2.562500 4.796875q-0.875000 2.609375 -0.875000 5.437500l0.000000 21.046875l6.875000 0.000000l0.000000 5.078125z"/>
<path id="c_83fd63b8ac21b119aad30348d7612163" d="M1.421875 -0.000000l0.000000 -5.078125l6.875000 0.000000l0.000000 -31.203125q0.000000 -2.828125 -6.875000 -2.828125l0.000000 -5.078125l16.984375 -0.828125l0.000000 8.203125q1.421875 -3.718750 4.031250 -5.953125q2.609375 -2.250000 6.281250 -2.250000q2.625000 0.000000 5.234375 0.921875q2.625000 0.921875 4.328125 2.828125q1.703125 1.906250 1.703125 4.640625q0.000000 2.593750 -1.812500 4.453125q-1.796875 1.843750 -4.484375 1.843750q-2.687500 0.000000 -4.500000 -1.843750q-1.796875 -1.859375 -1.796875 -4.453125q0.000000 -2.640625 1.609375 -4.390625l-0.281250 0.000000q-5.468750 0.000000 -7.359375 5.890625q-1.875000 5.875000 -1.875000 13.000000l0.000000 17.046875l8.734375 0.000000l0.000000 5.078125z"/>
<path id="c_ca7684a39273c231267fab53f42a37a1" d="M2.781250 -22.515625q0.000000 -6.484375 2.687500 -11.687500q2.687500 -5.203125 7.687500 -8.156250q5.015625 -2.953125 11.546875 -2.953125q6.593750 0.000000 10.843750 2.718750q4.250000 2.703125 6.250000 7.562500q2.000000 4.859375 2.000000 11.250000q0.000000 1.468750 -1.609375 2.000000l-26.171875 0.000000q0.000000 4.937500 0.703125 8.828125q0.718750 3.875000 3.203125 6.515625q2.484375 2.625000 7.281250 2.625000q4.046875 0.000000 7.296875 -2.343750q3.250000 -2.343750 4.312500 -6.156250q0.546875 -0.921875 1.468750 -1.171875l1.906250 0.000000q1.609375 0.343750 1.609375 1.765625q0.000000 0.093750 -0.093750 0.640625q-1.171875 3.656250 -3.812500 6.265625q-2.640625 2.609375 -6.296875 4.015625q-3.656250 1.390625 -7.468750 1.390625q-5.078125 0.000000 -9.375000 -1.640625q-4.296875 -1.640625 -7.421875 -4.687500q-3.125000 -3.062500 -4.843750 -7.328125q-1.703125 -4.265625 -1.703125 -9.453125M16.015625 -25.484375l17.875000 0.000000q0.000000 -3.718750 -0.765625 -7.250000q-0.750000 -3.546875 -2.812500 -6.062500q-2.046875 -2.515625 -5.609375 -2.515625q-5.171875 0.000000 -6.937500 4.734375q-1.750000 4.734375 -1.750000 11.093750"/>
<path id="c_1d4a10d238002893c4e280909fcefabf" d="M3.328125 -0.687500l0.000000 -13.906250q0.234375 -0.937500 1.265625 -1.234375l2.578125 0.000000q0.984375 0.343750 1.234375 1.234375q2.578125 11.171875 11.265625 11.171875q8.843750 0.000000 8.843750 -7.265625q0.000000 -1.812500 -0.937500 -3.250000q-0.921875 -1.437500 -2.437500 -2.390625q-1.500000 -0.953125 -3.218750 -1.343750l-6.000000 -1.218750q-5.421875 -1.328125 -9.015625 -4.671875q-3.578125 -3.343750 -3.578125 -8.328125q0.000000 -3.609375 1.234375 -6.234375q1.250000 -2.640625 3.515625 -4.234375q2.281250 -1.593750 5.156250 -2.265625q2.875000 -0.687500 6.437500 -0.687500q4.687500 0.000000 7.812500 1.703125l3.234375 -1.609375l0.390625 -0.093750l1.218750 0.000000q0.921875 0.250000 1.171875 1.218750l0.000000 10.984375q-0.250000 1.078125 -1.171875 1.328125l-2.640625 0.000000q-1.031250 -0.250000 -1.265625 -1.328125q0.000000 -2.640625 -1.109375 -4.562500q-1.093750 -1.921875 -3.093750 -2.968750q-2.000000 -1.062500 -4.734375 -1.062500q-8.687500 0.000000 -8.687500 6.015625q0.000000 2.187500 1.875000 3.687500q1.875000 1.484375 4.328125 2.109375l6.093750 1.171875q3.671875 0.937500 6.546875 2.875000q2.875000 1.921875 4.609375 4.921875q1.734375 3.000000 1.734375 6.718750q0.000000 7.515625 -4.390625 11.156250q-4.390625 3.640625 -11.921875 3.640625q-5.656250 0.000000 -9.375000 -2.796875l-4.187500 2.687500l-0.390625 0.109375l-1.125000 0.000000q-1.031250 -0.250000 -1.265625 -1.281250"/>
<path id="c_83adf764f9778718166b3c81e273116b" d="M25.000000 0.593750q-6.687500 0.000000 -11.703125 -2.781250q-5.000000 -2.796875 -7.765625 -7.921875q-2.750000 -5.125000 -2.750000 -11.671875q0.000000 -4.984375 1.484375 -9.328125q1.500000 -4.343750 4.375000 -7.515625q2.890625 -3.171875 7.078125 -4.921875q4.203125 -1.765625 9.281250 -1.765625q5.125000 0.000000 9.296875 1.765625q4.187500 1.750000 7.015625 4.921875q2.828125 3.171875 4.312500 7.421875q1.500000 4.250000 1.500000 9.421875q0.000000 6.546875 -2.734375 11.671875q-2.734375 5.125000 -7.765625 7.921875q-5.031250 2.781250 -11.625000 2.781250M25.000000 -3.812500q4.046875 0.000000 6.031250 -3.078125q1.984375 -3.078125 2.421875 -7.031250q0.437500 -3.953125 0.437500 -9.171875q0.000000 -3.765625 -0.203125 -6.609375q-0.187500 -2.859375 -1.000000 -5.500000q-0.796875 -2.640625 -2.656250 -4.375000q-1.859375 -1.734375 -5.031250 -1.734375q-4.093750 0.000000 -6.109375 2.890625q-2.000000 2.875000 -2.437500 6.562500q-0.437500 3.687500 -0.437500 8.765625q0.000000 5.218750 0.437500 9.156250q0.437500 3.921875 2.437500 7.031250q2.015625 3.093750 6.109375 3.093750"/>
<path id="c_3757157d94cc9c05b1a4181aee8626a9" d="M2.390625 -0.000000l0.000000 -5.078125l6.890625 0.000000l0.000000 -55.609375q0.000000 -1.859375 -1.953125 -2.328125q-1.953125 -0.468750 -4.937500 -0.468750l0.000000 -5.125000l18.125000 -0.781250l0.000000 64.312500l6.875000 0.000000l0.000000 5.078125z"/>
<path id="c_b18fdf7663e3349f8fd96cab2ccb18a8" d="M24.031250 0.593750q-6.453125 0.000000 -11.140625 -3.000000q-4.687500 -3.015625 -7.125000 -8.265625q-2.437500 -5.250000 -2.437500 -11.546875q0.000000 -6.546875 2.656250 -11.734375q2.656250 -5.203125 7.578125 -8.125000q4.937500 -2.937500 11.531250 -2.937500q6.109375 0.000000 10.890625 3.703125l0.000000 -19.375000q0.000000 -1.859375 -1.953125 -2.328125q-1.953125 -0.468750 -4.921875 -0.468750l0.000000 -5.125000l18.109375 -0.781250l0.000000 61.484375q0.000000 1.750000 1.953125 2.296875q1.953125 0.531250 4.937500 0.531250l0.000000 5.078125l-18.703125 0.593750l0.000000 -4.015625q-4.890625 4.015625 -11.375000 4.015625M25.000000 -3.421875q3.265625 0.000000 5.953125 -1.671875q2.687500 -1.687500 4.453125 -4.531250l0.000000 -26.265625q-1.609375 -2.250000 -4.109375 -3.687500q-2.484375 -1.437500 -5.171875 -1.437500q-4.343750 0.000000 -6.500000 2.953125q-2.140625 2.953125 -2.640625 6.765625q-0.484375 3.812500 -0.484375 8.890625l0.000000 0.281250q0.000000 3.468750 0.187500 6.375000q0.203125 2.906250 0.984375 5.750000q0.781250 2.828125 2.562500 4.703125q1.781250 1.875000 4.765625 1.875000"/>
</defs>
<g style="fill: #000000; opacity: 1.000000" transform="translate(255.840625,422.268750)scale(0.180000)">
<use xlink:href="#c_f49360f2586de9e4b02d6b7f5f0d0304"/>
<use xlink:href="#c_0c96f4663318b3b497bee66bebe3b890" x="69.384766"/>
<use xlink:href="#c_83fd63b8ac21b119aad30348d7612163" x="124.902344"/>
<use xlink:href="#c_ca7684a39273c231267fab53f42a37a1" x="167.578125"/>
<use xlink:href="#c_1d4a10d238002893c4e280909fcefabf" x="214.160156"/>
<use xlink:href="#c_0c96f4663318b3b497bee66bebe3b890" x="253.564453"/>
<use xlink:href="#c_83adf764f9778718166b3c81e273116b" x="309.082031"/>
<use xlink:href="#c_3757157d94cc9c05b1a4181aee8626a9" x="359.082031"/>
<use xlink:href="#c_b18fdf7663e3349f8fd96cab2ccb18a8" x="386.767578"/>
</g>
</g>
</g>
<g id="matplotlib.axis2">
<g id="ytick1">
<g id="line2d19">
<defs><path id="m3400efa6b1638b3fea9e19e898273957" d="M0.000000 0.000000L4.000000 0.000000"/></defs>
<g ><use style="fill: none; stroke: #000000; stroke-width: 0.500000; stroke-linejoin: round; stroke-linecap: butt;  opacity: 1.000000" xlink:href="#m3400efa6b1638b3fea9e19e898273957" x="72.000000" y="388.800000"/>
</g></g>
<g id="line2d20">
<defs><path id="m20b58b2501143cb5e0a5e8f1ef6f1643" d="M0.000000 0.000000L-4.000000 0.000000"/></defs>
<g ><use style="fill: none; stroke: #000000; stroke-width: 0.500000; stroke-linejoin: round; stroke-linecap: butt;  opacity: 1.000000" xlink:href="#m20b58b2501143cb5e0a5e8f1ef6f1643" x="518.400000" y="388.800000"/>
</g></g>
<g id="text9">
<defs>
<path id="c_241e11cb1762a072e8e04703d844d767" d="M5.906250 -8.015625q0.000000 -3.218750 2.343750 -5.609375q2.343750 -2.390625 5.671875 -2.390625q3.312500 0.000000 5.656250 2.343750q2.343750 2.343750 2.343750 5.656250q0.000000 3.328125 -2.390625 5.671875q-2.390625 2.343750 -5.609375 2.343750q-3.234375 0.000000 -5.625000 -2.390625q-2.390625 -2.390625 -2.390625 -5.625000"/>
</defs>
<g style="fill: #000000; opacity: 1.000000" transform="translate(46.437500,394.589063)scale(0.180000)">
<use xlink:href="#c_bd189987bd89a7b3eb6aec75796a6bc8"/>
<use xlink:href="#c_241e11cb1762a072e8e04703d844d767" x="50.000000"/>
<use xlink:href="#c_bd189987bd89a7b3eb6aec75796a6bc8" x="77.685547"/>
</g>
</g>
</g>
<g id="ytick2">
<g id="line2d21">
<g ><use style="fill: none; stroke: #000000; stroke-width: 0.500000; stroke-linejoin: round; stroke-linecap: butt;  opacity: 1.000000" xlink:href="#m3400efa6b1638b3fea9e19e898273957" x="72.000000" y="319.680000"/>
</g></g>
<g id="line2d22">
<g ><use style="fill: none; stroke: #000000; stroke-width: 0.500000; stroke-linejoin: round; stroke-linecap: butt;  opacity: 1.000000" xlink:href="#m20b58b2501143cb5e0a5e8f1ef6f1643" x="518.400000" y="319.680000"/>
</g></g>
<g id="text10">
<g style="fill: #000000; opacity: 1.000000" transform="translate(46.625000,325.469063)scale(0.180000)">
<use xlink:href="#c_bd189987bd89a7b3eb6aec75796a6bc8"/>
<use xlink:href="#c_241e11cb1762a072e8e04703d844d767" x="50.000000"/>
<use xlink:href="#c_435c0ad052e81ac792eef9745a69dda8" x="77.685547"/>
</g>
</g>
</g>
<g id="ytick3">
<g id="line2d23">
<g ><use style="fill: none; stroke: #000000; stroke-width: 0.500000; stroke-linejoin: round; stroke-linecap: butt;  opacity: 1.000000" xlink:href="#m3400efa6b1638b3fea9e19e898273957" x="72.000000" y="250.560000"/>
</g></g>
<g id="line2d24">
<g ><use style="fill: none; stroke: #000000; stroke-width: 0.500000; stroke-linejoin: round; stroke-linecap: butt;  opacity: 1.000000" xlink:href="#m20b58b2501143cb5e0a5e8f1ef6f1643" x="518.400000" y="250.560000"/>
</g></g>
<g id="text11">
<defs>
<path id="c_a94c655bbde2d2217f8233435eb45e54" d="M17.093750 -0.000000l0.000000 -5.078125l9.718750 0.000000l0.000000 -10.406250l-24.031250 0.000000l0.000000 -5.125000l30.812500 -43.703125q0.593750 -0.875000 1.812500 -0.875000l2.484375 0.000000q0.828125 0.000000 1.312500 0.500000q0.500000 0.484375 0.500000 1.312500l0.000000 42.765625l7.421875 0.000000l0.000000 5.125000l-7.421875 0.000000l0.000000 10.406250l7.421875 0.000000l0.000000 5.078125zM8.203125 -20.609375l19.671875 0.000000l0.000000 -27.875000z"/>
</defs>
<g style="fill: #000000; opacity: 1.000000" transform="translate(46.234375,256.349063)scale(0.180000)">
<use xlink:href="#c_bd189987bd89a7b3eb6aec75796a6bc8"/>
<use xlink:href="#c_241e11cb1762a072e8e04703d844d767" x="50.000000"/>
<use xlink:href="#c_a94c655bbde2d2217f8233435eb45e54" x="77.685547"/>
</g>
</g>
</g>
<g id="ytick4">
<g id="line2d25">
<g ><use style="fill: none; stroke: #000000; stroke-width: 0.500000; stroke-linejoin: round; stroke-linecap: butt;  opacity: 1.000000" xlink:href="#m3400efa6b1638b3fea9e19e898273957" x="72.000000" y="181.440000"/>
</g></g>
<g id="line2d26">
<g ><use style="fill: none; stroke: #000000; stroke-width: 0.500000; stroke-linejoin: round; stroke-linecap: butt;  opacity: 1.000000" xlink:href="#m20b58b2501143cb5e0a5e8f1ef6f1643" x="518.400000" y="181.440000"/>
</g></g>
<g id="text12">
<defs>
<path id="c_2e75b3049153cd3e7b053d54935e87d1" d="M25.000000 1.125000q-6.343750 0.000000 -10.593750 -3.125000q-4.250000 -3.125000 -6.406250 -8.000000q-2.140625 -4.890625 -2.968750 -10.656250q-0.828125 -5.765625 -0.828125 -11.671875q0.000000 -8.687500 2.828125 -16.234375q2.828125 -7.546875 8.765625 -12.234375q5.937500 -4.687500 14.718750 -4.687500q5.765625 0.000000 9.234375 3.593750q3.468750 3.593750 3.468750 9.296875q0.000000 2.687500 -1.906250 4.546875q-1.906250 1.859375 -4.500000 1.859375q-2.687500 0.000000 -4.593750 -1.859375q-1.890625 -1.859375 -1.890625 -4.546875q0.000000 -2.484375 1.625000 -4.343750q1.640625 -1.859375 4.031250 -2.046875q-1.859375 -2.203125 -5.468750 -2.203125q-5.468750 0.000000 -8.187500 3.843750q-2.703125 3.828125 -3.406250 8.781250q-0.703125 4.953125 -0.703125 10.968750q2.968750 -4.406250 7.906250 -4.406250q6.109375 0.000000 10.593750 2.734375q4.500000 2.734375 6.734375 7.578125q2.250000 4.828125 2.250000 11.078125q0.000000 9.718750 -5.546875 15.734375q-5.531250 6.000000 -15.156250 6.000000M25.000000 -3.609375q2.156250 0.000000 3.859375 -1.093750q1.703125 -1.109375 2.343750 -3.109375q0.484375 -2.296875 0.484375 -12.703125l0.000000 -0.281250q0.000000 -10.984375 -0.390625 -13.000000q-0.578125 -1.890625 -2.140625 -3.031250q-1.562500 -1.156250 -3.671875 -1.156250q-4.531250 0.000000 -5.859375 4.828125q-1.312500 4.828125 -1.312500 11.031250l0.000000 1.718750q0.000000 6.640625 1.171875 11.718750q1.171875 5.078125 5.515625 5.078125"/>
</defs>
<g style="fill: #000000; opacity: 1.000000" transform="translate(46.484375,187.229062)scale(0.180000)">
<use xlink:href="#c_bd189987bd89a7b3eb6aec75796a6bc8"/>
<use xlink:href="#c_241e11cb1762a072e8e04703d844d767" x="50.000000"/>
<use xlink:href="#c_2e75b3049153cd3e7b053d54935e87d1" x="77.685547"/>
</g>
</g>
</g>
<g id="ytick5">
<g id="line2d27">
<g ><use style="fill: none; stroke: #000000; stroke-width: 0.500000; stroke-linejoin: round; stroke-linecap: butt;  opacity: 1.000000" xlink:href="#m3400efa6b1638b3fea9e19e898273957" x="72.000000" y="112.320000"/>
</g></g>
<g id="line2d28">
<g ><use style="fill: none; stroke: #000000; stroke-width: 0.500000; stroke-linejoin: round; stroke-linecap: butt;  opacity: 1.000000" xlink:href="#m20b58b2501143cb5e0a5e8f1ef6f1643" x="518.400000" y="112.320000"/>
</g></g>
<g id="text13">
<defs>
<path id="c_56240f3e9382366e63f8314dd529d1d8" d="M4.203125 -16.406250q0.000000 -5.218750 2.781250 -9.218750q2.781250 -4.015625 7.812500 -7.000000q-3.609375 -2.437500 -5.765625 -6.453125q-2.140625 -4.031250 -2.140625 -8.437500q0.000000 -5.265625 2.265625 -9.359375q2.265625 -4.109375 6.359375 -6.359375q4.109375 -2.250000 9.484375 -2.250000q4.828125 0.000000 8.921875 1.671875q4.109375 1.656250 6.593750 5.046875q2.500000 3.390625 2.500000 8.281250q0.000000 8.156250 -8.390625 13.281250q5.359375 3.359375 8.218750 7.718750q2.859375 4.343750 2.859375 10.296875q0.000000 4.531250 -1.500000 8.343750q-1.484375 3.812500 -4.187500 6.421875q-2.703125 2.609375 -6.593750 4.078125q-3.875000 1.468750 -8.421875 1.468750q-5.718750 0.000000 -10.453125 -1.953125q-4.734375 -1.953125 -7.546875 -5.875000q-2.796875 -3.937500 -2.796875 -9.703125M25.000000 -3.609375q4.984375 0.000000 8.343750 -2.593750q3.375000 -2.593750 3.375000 -7.421875q0.000000 -2.343750 -1.296875 -4.468750q-1.296875 -2.125000 -3.437500 -3.484375l-12.593750 -8.109375q-3.031250 2.296875 -4.625000 5.859375q-1.578125 3.562500 -1.578125 7.421875q0.000000 5.562500 3.140625 9.187500q3.156250 3.609375 8.671875 3.609375M18.406250 -47.703125l11.765625 7.609375q2.390625 -2.093750 3.656250 -4.703125q1.281250 -2.609375 1.281250 -5.687500q0.000000 -4.734375 -2.734375 -7.718750q-2.734375 -2.984375 -7.468750 -2.984375q-4.156250 0.000000 -7.140625 1.890625q-2.968750 1.875000 -2.968750 5.781250q0.000000 1.750000 1.015625 3.312500q1.031250 1.562500 2.593750 2.500000"/>
</defs>
<g style="fill: #000000; opacity: 1.000000" transform="translate(46.484375,118.109062)scale(0.180000)">
<use xlink:href="#c_bd189987bd89a7b3eb6aec75796a6bc8"/>
<use xlink:href="#c_241e11cb1762a072e8e04703d844d767" x="50.000000"/>
<use xlink:href="#c_56240f3e9382366e63f8314dd529d1d8" x="77.685547"/>
</g>
</g>
</g>
<g id="ytick6">
<g id="line2d29">
<g ><use style="fill: none; stroke: #000000; stroke-width: 0.500000; stroke-linejoin: round; stroke-linecap: butt;  opacity: 1.000000" xlink:href="#m3400efa6b1638b3fea9e19e898273957" x="72.000000" y="43.200000"/>
</g></g>
<g id="line2d30">
<g ><use style="fill: none; stroke: #000000; stroke-width: 0.500000; stroke-linejoin: round; stroke-linecap: butt;  opacity: 1.000000" xlink:href="#m20b58b2501143cb5e0a5e8f1ef6f1643" x="518.400000" y="43.200000"/>
</g></g>
<g id="text14">
<g style="fill: #000000; opacity: 1.000000" transform="translate(46.968750,48.989062)scale(0.180000)">
<use xlink:href="#c_7b019f7db3d11a6a9a374c851b938a61"/>
<use xlink:href="#c_241e11cb1762a072e8e04703d844d767" x="50.000000"/>
<use xlink:href="#c_bd189987bd89a7b3eb6aec75796a6bc8" x="77.685547"/>
</g>
</g>
</g>
<g id="text15">
<defs>
<path id="c_b6e14084d50bbfdbdbef0209f2ace218" d="M1.125000 -17.187500l0.000000 -10.109375l26.468750 0.000000l0.000000 10.109375z"/>
<path id="c_e7839546026b50d6a21f79412334b058" d="M5.609375 -0.203125l0.000000 -21.375000q0.250000 -0.984375 1.281250 -1.218750l2.625000 0.000000q0.937500 0.234375 1.171875 1.218750q0.000000 5.609375 2.562500 9.640625q2.578125 4.031250 7.093750 5.984375q4.515625 1.953125 10.171875 1.953125q4.593750 0.000000 6.937500 -3.343750q2.343750 -3.343750 2.343750 -8.140625q0.000000 -2.390625 -0.828125 -4.734375q-0.828125 -2.343750 -2.546875 -4.093750q-1.703125 -1.765625 -4.093750 -2.390625l-12.015625 -2.984375q-6.593750 -1.656250 -10.656250 -7.296875q-4.046875 -5.640625 -4.046875 -12.437500q0.000000 -5.796875 2.375000 -10.437500q2.375000 -4.640625 6.734375 -7.218750q4.375000 -2.593750 10.281250 -2.593750q8.640625 0.000000 14.312500 4.968750l4.578125 -4.578125q0.390625 -0.296875 0.937500 -0.390625l1.171875 0.000000q0.968750 0.281250 1.218750 1.171875l0.000000 21.375000q-0.250000 1.031250 -1.218750 1.328125l-2.593750 0.000000q-1.078125 -0.250000 -1.312500 -1.328125q0.000000 -3.171875 -1.671875 -7.265625q-1.656250 -4.109375 -3.890625 -6.203125q-2.250000 -2.296875 -5.156250 -3.343750q-2.906250 -1.046875 -6.375000 -1.046875q-2.921875 0.000000 -5.000000 1.343750q-2.078125 1.328125 -3.187500 3.656250q-1.093750 2.312500 -1.093750 5.296875q0.000000 3.468750 1.968750 6.328125q1.984375 2.843750 5.312500 3.781250l12.015625 2.875000q4.484375 1.125000 7.843750 4.328125q3.375000 3.187500 5.203125 7.656250q1.843750 4.468750 1.843750 9.109375q0.000000 6.015625 -2.250000 10.968750q-2.250000 4.953125 -6.640625 7.859375q-4.390625 2.906250 -10.500000 2.906250q-10.250000 0.000000 -16.890625 -5.031250l-4.734375 4.593750q-0.390625 0.234375 -0.875000 0.437500l-1.125000 0.000000q-1.031250 -0.343750 -1.281250 -1.328125"/>
<path id="c_e99ceee9ce5f3ff57326c2b60b4a8849" d="M1.421875 19.390625l0.000000 -5.078125l6.875000 0.000000l0.000000 -51.718750q0.000000 -1.703125 -6.875000 -1.703125l0.000000 -5.078125l18.062500 -0.828125l0.000000 4.093750q5.515625 -4.093750 12.500000 -4.093750q4.984375 0.000000 8.765625 1.812500q3.781250 1.796875 6.296875 4.875000q2.515625 3.078125 3.828125 7.281250q1.328125 4.187500 1.328125 8.828125q0.000000 6.593750 -2.671875 11.796875q-2.656250 5.203125 -7.671875 8.109375q-5.000000 2.906250 -11.531250 2.906250q-5.859375 0.000000 -10.203125 -3.468750l0.000000 17.187500l6.875000 0.000000l0.000000 5.078125zM20.125000 -9.078125q3.609375 5.656250 9.265625 5.656250q5.281250 0.000000 7.453125 -6.093750q2.171875 -6.109375 2.171875 -12.703125q0.000000 -6.296875 -1.890625 -12.328125q-1.875000 -6.031250 -6.609375 -6.031250q-2.968750 0.000000 -5.703125 1.390625q-2.734375 1.390625 -4.687500 3.890625z"/>
<path id="c_4acecd18f759c9c1c023e82575eb30ca" d="M24.906250 0.593750q-6.593750 0.000000 -11.500000 -2.937500q-4.906250 -2.937500 -7.500000 -8.078125q-2.578125 -5.156250 -2.578125 -11.796875q0.000000 -4.937500 1.484375 -9.156250q1.484375 -4.218750 4.234375 -7.343750q2.765625 -3.125000 6.843750 -4.859375q4.078125 -1.734375 9.015625 -1.734375q5.859375 0.000000 10.656250 2.156250q4.812500 2.140625 4.812500 7.265625q0.000000 2.781250 -1.812500 4.640625q-1.796875 1.859375 -4.578125 1.859375q-2.781250 0.000000 -4.640625 -1.906250q-1.859375 -1.906250 -1.859375 -4.593750q0.000000 -3.031250 1.906250 -4.593750q-1.796875 -0.437500 -4.390625 -0.437500q-3.031250 0.000000 -4.796875 1.906250q-1.750000 1.906250 -2.515625 4.734375q-0.750000 2.828125 -0.968750 5.687500q-0.218750 2.859375 -0.218750 6.281250q0.000000 4.593750 0.656250 8.625000q0.671875 4.015625 2.953125 6.953125q2.296875 2.921875 6.703125 2.921875q3.656250 0.000000 6.187500 -2.406250q2.546875 -2.421875 3.531250 -6.093750q0.390625 -0.625000 1.171875 -0.781250l2.578125 0.000000q1.218750 0.343750 1.218750 1.375000q0.000000 0.093750 -0.093750 0.531250q-1.515625 5.515625 -6.078125 8.656250q-4.562500 3.125000 -10.421875 3.125000"/>
<path id="c_fd91a944b9cc71be1d0b5baa4bcebdb8" d="M2.390625 -0.000000l0.000000 -5.078125l6.890625 0.000000l0.000000 -31.203125q0.000000 -1.906250 -1.812500 -2.359375q-1.796875 -0.468750 -4.781250 -0.468750l0.000000 -5.078125l17.828125 -0.828125l0.000000 39.937500l6.296875 0.000000l0.000000 5.078125zM5.515625 -61.531250q0.000000 -3.359375 2.296875 -5.656250q2.296875 -2.296875 5.671875 -2.296875q3.406250 0.000000 5.703125 2.296875q2.296875 2.296875 2.296875 5.656250q0.000000 3.328125 -2.296875 5.671875q-2.296875 2.343750 -5.703125 2.343750q-3.375000 0.000000 -5.671875 -2.343750q-2.296875 -2.343750 -2.296875 -5.671875"/>
<path id="c_db0d83054eae215c701cd1bf8e8c8b70" d="M2.484375 -0.000000l0.000000 -5.078125l6.937500 0.000000l0.000000 -34.234375l-5.609375 0.000000l0.000000 -5.078125l5.609375 0.000000l0.000000 -10.687500q0.000000 -5.125000 3.093750 -8.515625q3.109375 -3.406250 7.859375 -4.906250q4.765625 -1.515625 9.796875 -1.515625q4.015625 0.000000 7.015625 2.546875q3.000000 2.531250 3.000000 6.390625q0.000000 2.671875 -1.859375 4.531250q-1.859375 1.859375 -4.437500 1.859375q-2.593750 0.000000 -4.500000 -1.906250q-1.906250 -1.906250 -1.906250 -4.484375q0.000000 -3.078125 2.203125 -4.937500l-0.484375 0.000000q-4.500000 0.000000 -6.843750 3.296875q-2.343750 3.296875 -2.343750 7.937500l0.000000 10.390625l9.671875 0.000000l0.000000 5.078125l-9.078125 0.000000l0.000000 34.234375l8.687500 0.000000l0.000000 5.078125z"/>
<path id="c_63af600cbd42c037601e11aac7dfa175" d="M8.015625 -11.718750l0.000000 -27.593750l-6.109375 0.000000l0.000000 -4.000000q4.593750 0.000000 7.468750 -3.187500q2.875000 -3.203125 4.093750 -7.906250q1.234375 -4.718750 1.234375 -9.078125l5.125000 0.000000l0.000000 19.093750l11.859375 0.000000l0.000000 5.078125l-11.859375 0.000000l0.000000 27.296875q0.000000 3.375000 0.796875 5.796875q0.812500 2.406250 3.406250 2.406250q2.343750 0.000000 3.265625 -2.578125q0.921875 -2.593750 0.921875 -5.625000l0.000000 -5.656250l5.078125 0.000000l0.000000 5.953125q0.000000 2.921875 -1.250000 5.812500q-1.234375 2.875000 -3.578125 4.687500q-2.343750 1.812500 -5.468750 1.812500q-6.640625 0.000000 -10.812500 -2.953125q-4.171875 -2.968750 -4.171875 -9.359375"/>
<path id="c_d30af9495758b4123dee714c3d90bb1a" d="M11.078125 20.015625q-3.750000 0.000000 -6.468750 -2.828125q-2.703125 -2.828125 -2.703125 -6.687500q0.000000 -2.484375 1.703125 -4.203125q1.718750 -1.703125 4.296875 -1.703125q2.500000 0.000000 4.203125 1.703125q1.703125 1.718750 1.703125 4.203125q0.000000 3.953125 -3.312500 5.421875q0.187500 0.093750 0.578125 0.093750q3.375000 0.000000 5.843750 -2.437500q2.468750 -2.437500 3.781250 -5.859375l2.875000 -7.718750l-14.984375 -39.312500l-6.390625 0.000000l0.000000 -5.078125l23.921875 0.000000l0.000000 5.078125l-5.515625 0.000000l8.984375 23.593750l8.781250 -22.765625q0.000000 -0.484375 -1.781250 -0.656250q-1.781250 -0.171875 -3.484375 -0.171875l0.000000 -5.078125l17.375000 0.000000l0.000000 5.078125q-6.296875 0.000000 -6.687500 0.937500l-17.671875 46.093750q-2.000000 5.125000 -5.953125 8.703125q-3.953125 3.593750 -9.093750 3.593750"/>
</defs>
<g style="fill: #000000; opacity: 1.000000" transform="translate(41.234375,259.742188)rotate(-90.0)scale(0.180000)">
<use xlink:href="#c_7b019f7db3d11a6a9a374c851b938a61"/>
<use xlink:href="#c_b6e14084d50bbfdbdbef0209f2ace218" x="50.000000"/>
<use xlink:href="#c_e7839546026b50d6a21f79412334b058" x="83.300781"/>
<use xlink:href="#c_e99ceee9ce5f3ff57326c2b60b4a8849" x="138.818359"/>
<use xlink:href="#c_ca7684a39273c231267fab53f42a37a1" x="194.335938"/>
<use xlink:href="#c_4acecd18f759c9c1c023e82575eb30ca" x="240.917969"/>
<use xlink:href="#c_fd91a944b9cc71be1d0b5baa4bcebdb8" x="285.302734"/>
<use xlink:href="#c_db0d83054eae215c701cd1bf8e8c8b70" x="312.988281"/>
<use xlink:href="#c_fd91a944b9cc71be1d0b5baa4bcebdb8" x="343.505859"/>
<use xlink:href="#c_4acecd18f759c9c1c023e82575eb30ca" x="371.191406"/>
<use xlink:href="#c_fd91a944b9cc71be1d0b5baa4bcebdb8" x="415.576172"/>
<use xlink:href="#c_63af600cbd42c037601e11aac7dfa175" x="443.261719"/>
<use xlink:href="#c_d30af9495758b4123dee714c3d90bb1a" x="482.275391"/>
</g>
</g>
</g>
<g id="patch3">
<path style="fill: none; stroke: #000000; stroke-width: 1.000000; stroke-linejoin: round; stroke-linecap: square;  opacity: 1.000000"  d="M72.000000 43.200000L518.400000 43.200000"/>
</g>
<g id="patch4">
<path style="fill: none; stroke: #000000; stroke-width: 1.000000; stroke-linejoin: round; stroke-linecap: square;  opacity: 1.000000"  d="M518.400000 388.800000L518.400000 43.200000"/>
</g>
<g id="patch5">
<path style="fill: none; stroke: #000000; stroke-width: 1.000000; stroke-linejoin: round; stroke-linecap: square;  opacity: 1.000000"  d="M72.000000 388.800000L518.400000 388.800000"/>
</g>
<g id="patch6">
<path style="fill: none; stroke: #000000; stroke-width: 1.000000; stroke-linejoin: round; stroke-linecap: square;  opacity: 1.000000"  d="M72.000000 388.800000L72.000000 43.200000"/>
</g>
</g>
</g>
</svg>
